<?xml version="1.0" encoding="UTF-8" standalone="no"?>
<!DOCTYPE svg PUBLIC "-//W3C//DTD SVG 1.1//EN" "http://www.w3.org/Graphics/SVG/1.1/DTD/svg11.dtd">
<svg width="100%" height="100%" viewBox="0 0 363 104" version="1.1" xmlns="http://www.w3.org/2000/svg" xmlns:xlink="http://www.w3.org/1999/xlink" xml:space="preserve" xmlns:serif="http://www.serif.com/" style="fill-rule:evenodd;clip-rule:evenodd;stroke-linejoin:round;stroke-miterlimit:2;">
    <g transform="matrix(1,0,0,1,-3.5462,-3.54501)">
        <g transform="matrix(1,0,0,1,48.01,-536.767)">
            <g id="g2093" transform="matrix(1,0,0,1,3.5462,3.545)">
                <g>
                    <path id="path8" d="M76.761,557.819C84.354,557.819 89.761,563.482 91.273,570.963L62.233,570.963C63.746,563.376 68.982,557.819 76.761,557.819M77.034,537.195C53.022,537.195 35.994,554.987 35.994,580.153L35.994,582.824C35.994,608.364 53.695,625.088 81.073,625.088C87.154,625.088 101.89,625.088 115.878,614.242L115.878,595.434C104.428,604.09 96.846,605.319 86.966,605.319C72.588,605.319 63.42,599.655 61.624,586.725L117.214,586.725C117.278,585.389 117.278,584.053 117.278,582.771C117.86,553.598 99.389,537.195 77.034,537.195" style="fill:white;fill-rule:nonzero;"/>
                    <path id="path10" d="M148.086,551.14C156.063,541.522 163.81,537.515 173.994,537.515C186.444,537.515 202.991,544.942 202.991,569.787L202.991,622.897L177.959,622.897L177.959,573.741C177.959,561.773 172.61,556.91 165.542,556.91C159.349,556.91 154.588,560.33 148.086,570.856L148.086,622.897L122.989,622.897L122.989,539.92L148.086,539.92L148.086,551.14" style="fill:white;fill-rule:nonzero;"/>
                    <path id="path12" d="M-24.046,604.464L-3.23,604.464C2.028,604.464 6.917,602.594 6.917,595.808C6.917,589.289 2.028,587.152 -3.23,587.152L-24.046,587.152L-24.046,604.464M-23.971,571.337L-4.822,571.337C-0.793,571.337 5.196,571.176 5.196,564.872C5.196,559.155 -0.457,558.193 -4.822,558.193L-23.971,558.193L-23.971,571.337M33.06,598.212C33.06,604.197 30.859,611.944 23.667,617.554C16.684,622.897 9.364,623.271 2.616,623.271L-48.01,623.271L-48.01,537.622L0.831,537.622C5.827,537.729 9.69,537.729 14.199,539.225C22.006,541.843 30.373,546.972 30.373,559.208C30.373,567.597 26.157,574.169 19.409,577.695C21.642,578.924 23.667,579.939 25.783,581.916C29.475,585.175 33.06,590.465 33.06,598.212" style="fill:white;fill-rule:nonzero;"/>
                    <path id="path14" d="M266.322,600.296C262.903,604.41 258.148,606.387 253.018,606.387C246.446,606.387 241.531,603.342 237.951,598.052C235.183,593.884 233.735,588.435 233.74,582.557C233.74,575.077 236.204,568.612 240.088,564.124C243.614,559.742 247.515,558.139 253.018,558.139C256.758,558.139 260.338,558.994 263.277,561.238C268.727,565.673 272.2,573.741 272.2,582.343C272.2,589.236 270.009,595.968 266.322,600.296M274.016,620.92L273.91,620.6C288.817,615.364 299.129,600.83 299.129,581.115C299.129,548.362 273.482,536.767 253.659,536.767C229.755,536.767 207.832,551.835 207.832,580.901C207.832,607.509 227.083,624.981 253.499,625.088C257.4,629.736 278.665,647.849 310.777,637.591L314.677,610.021C299.182,623.058 277.489,621.936 274.016,620.92" style="fill:white;fill-rule:nonzero;"/>
                </g>
            </g>
        </g>
    </g>
</svg>
