<?xml version="1.0" encoding="UTF-8" standalone="no"?>
<!DOCTYPE svg PUBLIC "-//W3C//DTD SVG 1.1//EN" "http://www.w3.org/Graphics/SVG/1.1/DTD/svg11.dtd">
<svg width="100%" height="100%" viewBox="0 0 700 501" version="1.1" xmlns="http://www.w3.org/2000/svg" xmlns:xlink="http://www.w3.org/1999/xlink" xml:space="preserve" xmlns:serif="http://www.serif.com/" style="fill-rule:evenodd;clip-rule:evenodd;stroke-linejoin:round;stroke-miterlimit:2;">
    <g transform="matrix(1,0,0,1,29.1,-71.6)">
        <path d="M609.9,404.2C609.9,322.3 578,245.4 520.1,187.5C462.2,129.6 385.3,97.7 303.5,97.7C221.7,97.7 144.7,129.6 86.8,187.5C28.9,245.4 -3,322.3 -3,404.2L-29.1,404.2C-29.1,315.3 5.4,231.9 68.4,169.1C131.1,106.4 214.6,71.6 303.5,71.6C392.4,71.6 475.8,106.1 538.6,169.1C601.3,231.8 636.1,315.6 636.1,404.2L609.9,404.2Z" style="fill:white;fill-rule:nonzero;"/>
        <path d="M576.8,404.2C576.8,331.2 548.3,262.6 496.8,210.9C445.3,159.4 376.5,130.9 303.5,130.9C230.5,130.9 161.9,159.4 110.2,210.9C58.7,262.4 30.2,331.2 30.2,404.2L4,404.2C4,324.2 35.2,249.1 91.7,192.4C148.4,135.7 223.5,104.7 303.5,104.7C383.5,104.7 458.6,136 515.3,192.4C572,249.1 603,324.2 603,404.2L576.8,404.2Z" style="fill:white;fill-rule:nonzero;"/>
        <path d="M543.4,404.2C543.4,340.1 518.4,279.7 473,234.4C427.5,188.9 367.4,164 303.2,164C239,164 178.7,189 133.4,234.4C88,279.9 63,340 63,404.2L36.9,404.2C36.9,333.1 64.7,266.1 114.8,216C165.2,165.6 231.9,138.1 303,138.1C374.1,138.1 441.1,165.9 491.2,216C541.6,266.4 569.1,333.1 569.1,404.2L543.4,404.2Z" style="fill:white;fill-rule:nonzero;"/>
        <path d="M510.3,404.2C510.3,348.9 488.8,296.9 449.7,257.7C410.5,218.5 358.5,197.1 303.2,197.1C247.9,197.1 196,218.5 156.8,257.7C117.6,296.9 96.2,348.9 96.2,404.2L70,404.2C70,341.9 94.3,283.4 138.3,239.3C182.3,195.2 240.9,171 303.2,171C365.5,171 424,195.3 468.1,239.3C512.2,283.4 536.4,341.9 536.4,404.2L510.3,404.2Z" style="fill:white;fill-rule:nonzero;"/>
        <path d="M477.2,404.2C477.2,357.8 459,314.2 426.4,281.3C393.5,248.4 349.9,230.5 303.5,230.5C257.1,230.5 213.5,248.7 180.6,281.3C147.7,314.2 129.8,357.8 129.8,404.2L103.7,404.2C103.7,350.8 124.5,300.7 162.2,262.9C199.9,225.1 250.1,204.4 303.5,204.4C356.9,204.4 407,225.2 444.8,262.9C482.6,300.6 503.3,350.8 503.3,404.2L477.2,404.2Z" style="fill:white;fill-rule:nonzero;"/>
        <path d="M301.6,571.1C257.8,570.6 216.5,553.4 185.5,522.4C154,490.9 136.5,448.9 136.5,404.4C136.5,359.9 153.8,317.9 185.5,286.4C216.5,255.4 257.3,238.1 300.9,237.7L303.5,263.8C225.8,263.8 162.6,326.8 162.6,404.7C162.6,482.6 225.6,545.6 303.5,545.6L301.6,571.1Z" style="fill:white;fill-rule:nonzero;"/>
        <path d="M363.2,528.7C362.3,525 360.2,518 349.4,518C343.1,518 334,522.2 334,539.5C334,550.5 338.4,560.5 349.4,560.5C356.6,560.5 361.5,556.5 363.2,548.8L376,548.8C373.4,562.1 364.6,571.7 349.2,571.7C332.9,571.7 321,560.7 321,539.3C321,517.8 333.4,506.7 349.2,506.7C367.6,506.7 375.1,519.3 375.8,528.6L363.2,528.6L363.2,528.7Z" style="fill:white;fill-rule:nonzero;"/>
        <path d="M423.8,547.3C423.8,530.7 412.8,523.3 400.5,523.3C388.2,523.3 377.2,530.8 377.2,547.3C377.2,563.9 388.2,571.3 400.5,571.3C412.8,571.3 423.8,563.9 423.8,547.3M411.5,547.3C411.5,553.1 409.9,561.3 400.5,561.3C391.2,561.3 389.5,553.1 389.5,547.3C389.5,541.5 391.1,533.3 400.5,533.3C409.8,533.4 411.5,541.5 411.5,547.3" style="fill:white;fill-rule:nonzero;"/>
        <rect x="426.1" y="509.1" width="11.7" height="60.6" style="fill:white;fill-rule:nonzero;"/>
        <path d="M488.2,547.3C488.2,530.7 477.2,523.3 464.9,523.3C452.6,523.3 441.6,530.8 441.6,547.3C441.6,563.9 452.6,571.3 464.9,571.3C477.2,571.3 488.2,563.9 488.2,547.3M475.8,547.3C475.8,553.1 474.2,561.3 464.8,561.3C455.5,561.3 453.8,553.1 453.8,547.3C453.8,541.5 455.4,533.3 464.8,533.3C474,533.6 475.8,541.5 475.8,547.3" style="fill:white;fill-rule:nonzero;"/>
        <path d="M490.5,524.5L501.9,524.5L501.9,532.4L502.1,532.4C504.7,527.7 507.2,523.3 514.7,523.3C515.4,523.3 516.3,523.3 517,523.5L517,535.6C516.1,535.4 514.7,535.4 513.5,535.4C504.2,535.4 502.5,541.2 502.5,546.4L502.5,570.2L490.4,570.2L490.5,524.5Z" style="fill:white;fill-rule:nonzero;"/>
        <path d="M555.8,536.6C555.8,525.4 544.1,523.3 537.6,523.3C528.3,523.3 518.5,525.2 517.1,539.2L528.8,539.2C529,536.6 530.2,532.9 536.3,532.9C539.3,532.9 544.2,533.1 544.2,538.3C544.2,540.9 541.9,541.6 540,541.8L529.3,543.4C521.6,544.6 516,549 516,558.1C516,567.4 523,571.4 530,571.4C538.2,571.4 542.1,567.7 544.7,564.9C544.9,567.5 545.2,568.2 545.9,570.3L559,570.3L559,568.4C557.6,567.9 556.4,566.8 556.4,561.2L556.4,536.7L555.8,536.7L555.8,536.6ZM543.9,553.9C543.9,559.5 538.5,563 533.2,563C530.9,563 527.6,561.6 527.6,557.4C527.6,552.5 531.3,551.3 535.8,550.6C540.7,549.9 542.8,549 544,548L544,553.9L543.9,553.9Z" style="fill:white;fill-rule:nonzero;"/>
        <path d="M625.8,570.2L613.7,570.2L613.7,542.4C613.7,535.6 610.7,533.3 607.2,533.3C601.1,533.3 599,537.3 599,542.6L599,570L587.1,570L587.1,542.5C587.1,538.5 587.1,533.2 579.9,533.2C574.3,533.2 572.4,537.2 572.4,542.1L572.4,569.9L560.3,569.9L560.3,524L571.7,524L571.7,530.8L571.9,530.8C573.5,527.8 576.8,522.9 585,522.9C591.5,522.9 594.6,525.2 597.6,530.1C599.2,527.8 602.5,522.9 609.7,522.9C618.6,522.9 625.6,528 625.6,538.3L625.6,570.2L625.8,570.2Z" style="fill:white;fill-rule:nonzero;"/>
        <path d="M667.7,536.6C667.7,525.4 656,523.3 649.5,523.3C640.2,523.3 630.4,525.2 629,539.2L640.7,539.2C640.9,536.6 642.1,532.9 648.2,532.9C651.2,532.9 656.1,533.1 656.1,538.3C656.1,540.9 653.8,541.6 651.9,541.8L641.2,543.4C633.5,544.6 627.9,549 627.9,558.1C627.9,567.4 634.9,571.4 641.9,571.4C650.1,571.4 654,567.7 656.6,564.9C656.8,567.5 657.1,568.2 657.8,570.3L670.9,570.3L670.9,568.4C669.5,567.9 668.3,566.8 668.3,561.2L668.3,536.7L667.7,536.7L667.7,536.6ZM656.1,553.9C656.1,559.5 650.7,563 645.4,563C643.1,563 639.8,561.6 639.8,557.4C639.8,552.5 643.5,551.3 648,550.6C652.9,549.9 655,549 656.2,548L656.2,553.9L656.1,553.9Z" style="fill:white;fill-rule:nonzero;"/>
        <circle cx="657" cy="506.8" r="7" style="fill:white;"/>
        <path d="M657,507.2C657.9,507.2 658.6,506.7 658.6,505.8C658.6,505.3 658.4,504.6 657.2,504.6L654.6,504.6L654.6,507.2L657,507.2ZM652.8,503L657.7,503C660.3,503 660.7,504.9 660.7,505.6C660.7,506.5 660.2,507.5 659.3,507.9C660,508.1 660.5,508.6 660.5,510.2C660.5,511.6 660.5,511.8 661,512.1L661,512.3L658.9,512.3C658.7,511.8 658.7,511.4 658.7,510.4C658.7,509 658.7,508.5 657.1,508.5L654.8,508.5L654.8,512.2L652.9,512.2L652.9,503L652.8,503Z" style="fill:white;fill-rule:nonzero;"/>
    </g>
</svg>
