<?xml version="1.0" encoding="UTF-8" standalone="no"?>
<!DOCTYPE svg PUBLIC "-//W3C//DTD SVG 1.1//EN" "http://www.w3.org/Graphics/SVG/1.1/DTD/svg11.dtd">
<svg width="100%" height="100%" viewBox="0 0 1098 298" version="1.1" xmlns="http://www.w3.org/2000/svg" xmlns:xlink="http://www.w3.org/1999/xlink" xml:space="preserve" xmlns:serif="http://www.serif.com/" style="fill-rule:evenodd;clip-rule:evenodd;stroke-linejoin:round;stroke-miterlimit:2;">
    <g>
        <path d="M346.34,0L357.06,0C374.18,0.95 389.54,3.15 404.95,11.04C405.257,11.2 405.347,11.44 405.22,11.76L395.88,35.57C395.809,35.749 395.635,35.868 395.443,35.868C395.357,35.868 395.273,35.844 395.2,35.8C382,27.69 365.69,25.45 349.74,25.87C337.313,26.197 326.843,29.937 318.33,37.09C294.98,56.69 288.41,88.35 289.5,117.5C290.88,154.52 311.06,194.79 353.83,193.34C371.4,192.75 386.58,186.58 397.61,172.43C397.628,172.407 397.647,172.385 397.668,172.364C397.904,172.135 398.29,172.143 398.524,172.383C398.544,172.404 398.563,172.426 398.58,172.45L413.9,193.61C414.117,193.913 414.079,194.335 413.81,194.6C401.003,206.973 385.733,214.677 368,217.71C314.58,226.83 273.93,198.08 262.51,145.73C253.06,102.43 260.15,53.72 292.53,22.53C307.057,8.537 324.993,1.027 346.34,0Z" style="fill:white;fill-rule:nonzero;"/>
        <path d="M513.99,0.5L521.19,0.5C521.398,0.499 521.585,0.626 521.66,0.82L601.8,214.85C601.822,214.907 601.834,214.968 601.834,215.03C601.834,215.304 601.608,215.53 601.334,215.53C601.332,215.53 601.331,215.53 601.33,215.53L569.95,215.48C569.737,215.478 569.548,215.341 569.48,215.14L555,171.09C554.932,170.889 554.743,170.752 554.53,170.75L475.72,170.75C475.51,170.75 475.321,170.882 475.25,171.08L459.75,215.41C459.681,215.615 459.486,215.753 459.27,215.75L427.47,215.72C427.197,215.719 426.972,215.493 426.972,215.22C426.972,215.155 426.985,215.09 427.01,215.03L513.52,0.81C513.598,0.62 513.785,0.497 513.99,0.5ZM516.36,56.78C516.316,56.657 516.199,56.574 516.068,56.574C515.941,56.574 515.827,56.652 515.78,56.77L483.34,149.09C483.329,149.122 483.323,149.156 483.323,149.19C483.323,149.359 483.461,149.498 483.63,149.5L546.08,149.5C546.082,149.5 546.084,149.5 546.087,149.5C546.257,149.5 546.397,149.36 546.397,149.19C546.397,149.156 546.391,149.122 546.38,149.09L516.36,56.78Z" style="fill:white;fill-rule:nonzero;"/>
        <path d="M0,215.34L0,3.25C22.873,2.39 40.373,1.883 52.5,1.73C107.36,1.06 145.8,35.97 149.48,90.51C152.81,139.86 139.43,192.36 86.83,209.4C61.3,217.67 33.32,215.68 7,215.55C4.633,215.537 2.3,215.467 0,215.34ZM119.16,98.99C118.16,68.23 107.71,38.38 74.06,30.4C58.66,26.75 45.09,28.19 29.64,29.06C29.284,29.076 29,29.374 29,29.73L29,187.52C29,188.053 29.267,188.347 29.8,188.4C49.2,190.39 68.79,191.36 85.76,181.19C113.25,164.7 120.12,128.17 119.16,98.99Z" style="fill:white;fill-rule:nonzero;"/>
        <path d="M625.2,3.3C662.97,1.21 734.21,-5.14 753.33,39.67C759.15,53.28 758.81,71.4 755.33,85.93C743.81,134.03 694.8,138.01 654.48,133.98C654.466,133.979 654.451,133.978 654.437,133.977C654.004,133.962 653.635,134.302 653.62,134.729C653.62,134.743 653.62,134.756 653.62,134.77C654.007,161.217 654.06,187.753 653.78,214.38C653.77,215.26 653.75,216.22 652.51,215.58C652.277,215.453 652.027,215.393 651.76,215.4C642.973,215.613 634.18,215.713 625.38,215.7C625.034,215.7 624.75,215.416 624.75,215.07L624.75,3.77C624.75,3.47 624.9,3.313 625.2,3.3ZM653.76,29.9L654.03,107.39C654.03,107.67 654.17,107.827 654.45,107.86C684.16,111.23 725.6,110.57 727.5,69.7C729.41,28.56 683.39,24.64 654.37,29.18C653.963,29.247 653.76,29.487 653.76,29.9Z" style="fill:white;fill-rule:nonzero;"/>
        <path d="M1097.02,32.12C1097.02,48.572 1083.48,62.11 1067.03,62.11C1050.58,62.11 1037.04,48.572 1037.04,32.12C1037.04,15.668 1050.58,2.13 1067.03,2.13C1083.48,2.13 1097.02,15.668 1097.02,32.12ZM1091.96,32.12C1091.96,18.449 1080.71,7.2 1067.04,7.2C1053.37,7.2 1042.12,18.449 1042.12,32.12C1042.12,45.791 1053.37,57.04 1067.04,57.04C1080.71,57.04 1091.96,45.791 1091.96,32.12Z" style="fill:white;fill-rule:nonzero;"/>
        <circle cx="210.35" cy="19.1" r="17.06" style="fill:white;"/>
        <path d="M1061.25,33.5L1061.25,46.62C1061.25,47.04 1061.04,47.25 1060.63,47.25L1056.87,47.25C1056.46,47.25 1056.25,47.043 1056.25,46.63L1056.25,16.98C1056.25,16.567 1056.46,16.35 1056.87,16.33C1063.05,15.99 1076.55,14.74 1078.8,22.8C1080.13,27.56 1076.91,30.31 1072.91,32.23C1072.53,32.417 1072.44,32.697 1072.64,33.07L1079.79,46.59C1080.02,47.03 1079.89,47.25 1079.4,47.25L1075.47,47.25C1075.02,47.25 1074.7,47.053 1074.5,46.66C1072.21,42.267 1069.94,37.863 1067.7,33.45C1067.55,33.15 1067.31,33 1066.98,33L1061.75,33C1061.42,33 1061.25,33.167 1061.25,33.5ZM1061.25,19.84L1061.25,29.52C1061.25,29.794 1061.48,30.02 1061.75,30.02L1066.92,30.02C1070.68,30.02 1073.77,27.844 1073.77,25.2L1073.77,24.16C1073.77,21.516 1070.68,19.34 1066.92,19.34L1061.75,19.34C1061.48,19.34 1061.25,19.566 1061.25,19.84Z" style="fill:white;fill-rule:nonzero;"/>
        <path d="M775.71,72.77C777.543,71.31 779.517,70.023 781.63,68.91C802.577,57.91 824.327,54.893 846.88,59.86C878.03,66.73 888.65,88.77 888.86,119.07C888.993,138.957 889.05,158.85 889.03,178.75C889.02,188.73 891.83,198.59 900.59,204.34C900.827,204.495 900.971,204.759 900.97,205.04L901.06,217.98C901.06,218.313 900.897,218.483 900.57,218.49C884.95,218.7 869.81,215.43 864.3,198.69C864.283,198.636 864.258,198.585 864.226,198.539C864.04,198.267 863.659,198.199 863.383,198.389C863.337,198.42 863.296,198.457 863.26,198.5C854.16,209.52 841.37,215.22 827.49,217.43C808.33,220.49 791.3,217.6 778.21,202.4C762.87,184.59 763.92,157.19 780.31,139.79C796.46,122.63 818.04,115.9 840.76,116.06C847.607,116.113 854.223,117.25 860.61,119.47C860.655,119.486 860.702,119.493 860.75,119.493C860.983,119.493 861.176,119.303 861.18,119.07C861.65,102.62 854.99,86.29 836.97,83.22C820.47,80.4 800.8,83.24 787.94,95.42C787.473,95.853 787.093,95.787 786.8,95.22L775.58,73.39C775.453,73.143 775.497,72.937 775.71,72.77ZM825.53,138.67C808.2,143.3 792.58,157.83 795.46,177.15C798.81,199.61 826.4,199.53 842.36,192.39C849.173,189.343 855.383,184.2 860.99,176.96C861.163,176.733 861.25,176.48 861.25,176.2L861.25,140.24C861.25,139.893 861.087,139.67 860.76,139.57C848.913,135.857 837.17,135.557 825.53,138.67Z" style="fill:white;fill-rule:nonzero;"/>
        <path d="M924.2,158.77C916.54,116.97 933.42,71.81 978.36,60.64C1004.11,54.24 1028.31,58.13 1050.96,72.31C1050.97,72.316 1050.98,72.322 1050.99,72.328C1051.44,72.63 1051.56,73.254 1051.25,73.71C1051.25,73.716 1051.25,73.723 1051.24,73.73L1038.39,91.66C1038.18,91.947 1037.93,91.993 1037.64,91.8C1025.6,84.187 1012.69,80.633 998.9,81.14C957.84,82.65 946.57,124.31 953.46,157.51C957.72,178.07 971.92,191.12 992.23,194.29C1009.6,196.997 1025.46,192.677 1039.8,181.33C1039.95,181.207 1040.14,181.14 1040.34,181.14C1040.68,181.14 1040.99,181.335 1041.13,181.64L1051.52,203.69C1051.67,204.02 1051.56,204.413 1051.25,204.6C1034.23,215.06 1014,218.94 994.21,218.45C958.08,217.57 930.7,194.25 924.2,158.77Z" style="fill:white;fill-rule:nonzero;"/>
        <path d="M194.4,84L174.19,84C173.861,84 173.59,83.729 173.59,83.4L173.7,61.1C173.7,60.771 173.971,60.5 174.3,60.5L222.15,60.5C222.479,60.5 222.75,60.771 222.75,61.1L222.75,215.2C222.75,215.529 222.479,215.8 222.15,215.8L195.6,215.62C195.271,215.62 195,215.349 195,215.02L195,84.6C195,84.271 194.729,84 194.4,84Z" style="fill:white;fill-rule:nonzero;"/>
        <path d="M78.92,297L75.03,297C56.86,294.06 58.2,278.55 59.09,263.5C60.38,241.62 92.07,240.88 95.48,261.94C95.54,262.313 95.38,262.5 95,262.5L86.55,262.5C86.103,262.5 85.82,262.283 85.7,261.85C83.74,254.95 74.46,252.92 70.56,258.45C67.42,262.89 68.33,274.86 68.88,280.35C70.1,292.38 86.35,290.7 86.04,277.75C86.035,277.337 85.693,277 85.28,277L77.63,277C77.21,277 77,276.793 77,276.38L77,269.62C77,269.207 77.21,269 77.63,269L95,269C95.407,269 95.623,269.2 95.65,269.6C96.64,282.68 94.47,295.2 78.92,297Z" style="fill:white;fill-rule:nonzero;"/>
        <path d="M400.19,297L396.2,297C377.6,294.03 379.69,278.49 380.2,263.69C380.95,241.87 413.05,240.63 416.22,261.99C416.223,262.007 416.224,262.024 416.224,262.042C416.224,262.234 416.066,262.392 415.874,262.392C415.863,262.392 415.851,262.391 415.84,262.39C413.78,262.18 407.03,263.35 406.27,261.28C404.477,256.38 401.123,254.457 396.21,255.51C388.27,257.22 389.54,268.55 389.72,274.87C389.91,281.2 389.92,286.76 396.46,288.25C401.91,289.49 404.32,286.07 406.36,281.78C406.527,281.427 406.807,281.25 407.2,281.25L415.74,281.25C416.02,281.25 416.25,281.48 416.25,281.76C416.25,281.794 416.247,281.827 416.24,281.86C414.487,290.673 409.137,295.72 400.19,297Z" style="fill:white;fill-rule:nonzero;"/>
        <path d="M789.19,297L784.96,297C773.47,295.31 769.44,288.3 768.81,277.31C768.41,270.377 768.547,265.02 769.22,261.24C772.97,240.32 804.59,242.41 805.15,264.19C805.51,278.17 807.58,293.87 789.19,297ZM778.99,281.4C779.71,287.46 786.59,290.11 791.3,287.21C794.78,285.06 795.44,281.13 795.46,277.25C795.49,269.29 797.43,257.42 789.03,255.52C775.52,252.47 778.16,274.31 778.99,281.4Z" style="fill:white;fill-rule:nonzero;"/>
        <path d="M830.18,297L826.25,297C809.29,294.2 809.55,280.52 810.15,267.03C810.383,261.75 811.177,257.86 812.53,255.36C818.8,243.82 838.26,243.72 844.36,255.63C845.48,257.817 846.167,261.003 846.42,265.19C847.25,279.05 848.09,294.31 830.18,297ZM820.16,280.92C820.92,290.82 835.12,290.77 836.48,280.98C837.153,276.1 837.157,269.937 836.49,262.49C835.81,254.83 825.23,252.88 821.56,259.03C818.65,263.9 819.71,275.06 820.16,280.92Z" style="fill:white;fill-rule:nonzero;"/>
        <path d="M921.93,297L917.76,297C907.587,295.273 902.23,289.45 901.69,279.53C900.91,265.24 900.16,246.46 920.71,246.74C929.457,246.867 935.197,251.69 937.93,261.21C937.951,261.285 937.962,261.362 937.962,261.44C937.962,261.901 937.583,262.28 937.122,262.28C937.121,262.28 937.121,262.28 937.12,262.28L928.79,262.32C928.463,262.32 928.23,262.17 928.09,261.87C927.157,259.783 926.443,258.43 925.95,257.81C922.98,254.13 915.9,254.92 913.45,258.34C910.08,263.04 911.07,277.47 911.97,282.49C912.4,284.91 914.66,287.19 917.16,287.85C922.547,289.263 926.197,287.22 928.11,281.72C928.217,281.407 928.433,281.25 928.76,281.25L937.23,281.25C937.91,281.25 938.163,281.577 937.99,282.23C935.697,290.863 930.343,295.787 921.93,297Z" style="fill:white;fill-rule:nonzero;"/>
        <path d="M999.61,297L994.24,297C988.56,296.627 983.71,294.607 979.69,290.94C979.557,290.821 979.48,290.65 979.48,290.471C979.48,290.306 979.545,290.148 979.66,290.03L984.87,284.72C985.157,284.433 985.463,284.407 985.79,284.64C990.937,288.28 996.597,289.233 1002.77,287.5C1006.87,286.35 1007.13,280.05 1004.16,277.85C1003.18,277.123 1001.15,276.54 998.08,276.1C989.56,274.88 981.95,273.23 981.35,262.86C980.3,244.53 1003.1,243.09 1014.21,251.97C1014.46,252.17 1014.47,252.387 1014.24,252.62L1008.92,257.97C1008.63,258.263 1008.31,258.297 1007.96,258.07C1004.25,255.57 1000.27,254.663 996.01,255.35C991.66,256.05 988.93,260.61 991.71,264.39C993.88,267.33 1004.05,267.9 1006.49,268.53C1015.72,270.89 1018.45,282.99 1013.19,290.12C1010.14,294.247 1005.62,296.54 999.61,297Z" style="fill:white;fill-rule:nonzero;"/>
        <path d="M0.3,247.97C0.3,247.405 0.765,246.94 1.33,246.94L18.89,246.97C28.463,246.987 36.326,254.846 36.31,264.38L36.29,279.42C36.29,279.42 36.29,279.42 36.29,279.42C36.273,288.955 28.383,296.787 18.81,296.77L1.25,296.74C0.685,296.74 0.22,296.275 0.22,295.71L0.3,247.97ZM10.05,256.46L9.99,287.26C9.99,287.671 10.329,288.01 10.74,288.01L17.62,288.02C17.621,288.02 17.623,288.02 17.624,288.02C22.479,288.028 26.481,283.882 26.49,278.835C26.49,278.834 26.51,264.93 26.51,264.93C26.516,259.887 22.531,255.731 17.68,255.72L10.8,255.71C10.389,255.71 10.05,256.049 10.05,256.46Z" style="fill:white;fill-rule:nonzero;"/>
        <path d="M52.49,247.68C52.49,247.305 52.185,247 51.81,247L43.43,247C43.055,247 42.75,247.305 42.75,247.68L42.75,295.9C42.75,296.275 43.055,296.58 43.43,296.58L51.81,296.58C52.185,296.58 52.49,296.275 52.49,295.9L52.49,247.68Z" style="fill:white;"/>
        <path d="M102.57,247L111.18,247C111.493,247 111.75,247.257 111.75,247.57L111.75,295.89C111.75,296.199 111.499,296.455 111.19,296.46L102.59,296.6C102.587,296.6 102.583,296.6 102.58,296.6C102.267,296.6 102.01,296.343 102.01,296.03C102.01,296.03 102,247.57 102,247.57C102,247.257 102.257,247 102.57,247Z" style="fill:white;fill-rule:nonzero;"/>
        <path d="M138.75,256.44L138.75,296.06C138.75,296.439 138.439,296.75 138.06,296.75L129.69,296.75C129.311,296.75 129,296.439 129,296.06L129,256.44C129,256.061 128.689,255.75 128.31,255.75L116.69,255.75C116.311,255.75 116,255.439 116,255.06L116,247.69C116,247.311 116.311,247 116.69,247L151.05,247C151.429,247 151.74,247.311 151.74,247.69L151.74,255.06C151.74,255.439 151.429,255.75 151.05,255.75L139.44,255.75C139.061,255.75 138.75,256.061 138.75,256.44Z" style="fill:white;fill-rule:nonzero;"/>
        <path d="M163.46,288.41L160.83,296.2C160.717,296.534 160.404,296.757 160.06,296.75L151.21,296.73C151.178,296.73 151.146,296.728 151.115,296.722C150.829,296.672 150.635,296.39 150.687,296.098C150.692,296.068 150.7,296.039 150.71,296.01L168.38,247.42C168.48,247.147 168.677,247.01 168.97,247.01L175.4,247C175.887,246.993 176.217,247.22 176.39,247.68L194.06,295.96C194.069,295.986 194.076,296.012 194.081,296.039C194.13,296.309 193.944,296.572 193.669,296.622C193.643,296.627 193.616,296.629 193.59,296.63C191.55,296.63 184.55,297.74 183.71,295.33C182.917,293.03 182.147,290.74 181.4,288.46C181.3,288.16 181.093,288.01 180.78,288.01L164.13,287.94C163.797,287.94 163.573,288.097 163.46,288.41ZM166.53,279.33C166.519,279.362 166.513,279.396 166.513,279.43C166.513,279.599 166.651,279.738 166.82,279.74L178.2,279.76C178.202,279.76 178.204,279.76 178.207,279.76C178.377,279.76 178.517,279.62 178.517,279.45C178.517,279.416 178.511,279.382 178.5,279.35L172.83,262.67C172.785,262.55 172.669,262.47 172.54,262.47C172.411,262.47 172.295,262.55 172.25,262.67L166.53,279.33Z" style="fill:white;fill-rule:nonzero;"/>
        <path d="M206.5,247.75L206.5,287.29C206.5,287.679 206.821,288 207.21,288L228.29,288C228.679,288 229,288.321 229,288.71L229,296.01C229,296.399 228.679,296.72 228.29,296.72L197.46,296.76C197.071,296.76 196.75,296.439 196.75,296.05L196.75,247.71C196.75,247.321 197.071,247 197.46,247L205.79,247.04C206.179,247.04 206.5,247.361 206.5,247.75Z" style="fill:white;fill-rule:nonzero;"/>
        <path d="M246.07,247.75C246.07,247.75 246.07,247.75 246.07,247.75C246.07,247.278 246.458,246.89 246.93,246.89C246.933,246.89 246.937,246.89 246.94,246.89L264.31,246.95C274.098,246.988 282.123,255.081 282.09,264.88L282.05,279C282.05,279.001 282.05,279.002 282.05,279.002C282.016,288.806 273.93,296.844 264.138,296.81C264.135,296.81 264.133,296.81 264.13,296.81L246.76,296.75C246.292,296.745 245.91,296.358 245.91,295.89L246.07,247.75ZM255.78,256.2L255.72,287.52C255.72,287.789 255.941,288.01 256.21,288.01L263.24,288.02C263.241,288.02 263.243,288.02 263.244,288.02C268.137,288.029 272.171,283.833 272.18,278.726C272.18,278.724 272.2,265.04 272.2,265.04C272.206,259.936 268.19,255.731 263.3,255.72L256.27,255.71C256.001,255.71 255.78,255.931 255.78,256.2Z" style="fill:white;fill-rule:nonzero;"/>
        <path d="M298.5,267.25C298.5,267.25 317.01,267.25 317.01,267.25C317.317,267.25 317.57,267.503 317.57,267.81C317.57,267.813 317.57,267.817 317.57,267.82L317.47,275.39C317.463,275.797 317.26,276 316.86,276L298.63,276C298.21,276 298,276.207 298,276.62L298,287.38C298,287.793 298.21,288 298.63,288L320.37,288C320.79,288 321,288.207 321,288.62L321,296.11C321,296.517 320.797,296.72 320.39,296.72L289.01,296.76C288.593,296.76 288.25,296.421 288.25,296.01L288.25,247.5C288.25,247.22 288.48,246.99 288.76,246.99L331.1,247.04C331.284,247.041 331.445,247.16 331.49,247.33L341.03,278.3C341.073,278.437 341.201,278.532 341.345,278.532C341.489,278.532 341.617,278.437 341.66,278.3L351.02,247.63C351.147,247.21 351.43,247 351.87,247L360.93,247.01C360.949,247.01 360.969,247.012 360.988,247.015C361.193,247.047 361.337,247.239 361.305,247.44C361.302,247.46 361.297,247.48 361.29,247.5L345.14,295.97C345.013,296.35 344.753,296.563 344.36,296.61C340.51,297.11 338.07,297.83 336.78,293.94C331.733,278.693 326.72,263.43 321.74,248.15C321.688,247.996 321.543,247.892 321.38,247.892C321.172,247.892 321.001,248.062 321,248.27L321,255.13C321,255.543 320.79,255.75 320.37,255.75L298.63,255.75C298.284,255.75 298,256.034 298,256.38L298,266.75C298,267.083 298.167,267.25 298.5,267.25Z" style="fill:white;fill-rule:nonzero;"/>
        <path d="M373.51,247.78C373.51,247.344 373.156,246.99 372.72,246.99L364.54,246.99C364.104,246.99 363.75,247.344 363.75,247.78L363.75,295.94C363.75,296.376 364.104,296.73 364.54,296.73L372.72,296.73C373.156,296.73 373.51,296.376 373.51,295.94L373.51,247.78Z" style="fill:white;"/>
        <path d="M431.57,288L453.23,288C453.515,288 453.75,288.235 453.75,288.52L453.75,296.11C453.75,296.395 453.515,296.63 453.23,296.63L421.78,296.8C421.495,296.8 421.26,296.565 421.26,296.28L421.24,247.52C421.24,247.235 421.475,247 421.76,247L453.23,247C453.515,247 453.75,247.235 453.75,247.52L453.75,255.23C453.75,255.515 453.515,255.75 453.23,255.75L431.42,255.75C431.135,255.75 430.9,255.985 430.9,256.27L430.96,266.73C430.96,267.015 431.195,267.25 431.48,267.25L449.98,267.25C450.265,267.25 450.5,267.485 450.5,267.77L450.5,275.48C450.5,275.765 450.265,276 449.98,276C449.98,276 431.39,276 431.39,276C431.105,276 430.87,276.235 430.87,276.52C430.87,276.523 430.87,276.527 430.87,276.53L431.05,287.49C431.055,287.771 431.288,288 431.57,288Z" style="fill:white;fill-rule:nonzero;"/>
        <path d="M497.13,267.62L488.45,296.49C488.41,296.627 488.283,296.721 488.14,296.72L480.54,296.76C480.394,296.76 480.266,296.661 480.23,296.52L467.12,247.4C467.113,247.374 467.11,247.347 467.11,247.32C467.11,247.144 467.254,247 467.43,247C467.43,247 476.94,247 476.94,247C477.086,247 477.214,247.099 477.25,247.24L484.52,277.03C484.559,277.168 484.685,277.264 484.828,277.264C484.964,277.264 485.085,277.178 485.13,277.05L493.76,247.23C493.8,247.093 493.927,246.999 494.07,247L500.86,247C501.003,246.999 501.13,247.093 501.17,247.23L509.78,277.12C509.818,277.259 509.945,277.356 510.089,277.356C510.236,277.356 510.366,277.254 510.4,277.11L517.73,247.24C517.766,247.099 517.894,247 518.04,247C518.04,247 527.56,247 527.56,247C527.736,247 527.88,247.144 527.88,247.32C527.88,247.347 527.877,247.374 527.87,247.4L514.68,296.51C514.644,296.651 514.516,296.75 514.37,296.75L506.8,296.74C506.657,296.741 506.53,296.647 506.49,296.51L497.75,267.62C497.714,267.479 497.586,267.379 497.44,267.379C497.294,267.379 497.166,267.479 497.13,267.62Z" style="fill:white;fill-rule:nonzero;"/>
        <path d="M527.25,296.76C526.777,296.807 526.31,296.77 525.85,296.65C525.397,296.523 525.25,296.24 525.41,295.8L543.04,247.4C543.133,247.133 543.323,247 543.61,247L550,247C550.467,247 550.887,247.292 551.05,247.73L568.75,296.15C568.758,296.173 568.764,296.197 568.769,296.221C568.813,296.47 568.649,296.71 568.406,296.753C568.381,296.758 568.356,296.76 568.33,296.76L559.78,296.72C559.127,296.713 558.693,296.4 558.48,295.78L555.96,288.3C555.827,287.913 555.557,287.723 555.15,287.73L538.81,288.01C538.457,288.017 538.144,288.245 538.03,288.58L535.49,296.05C535.377,296.404 535.049,296.652 534.67,296.67C532.47,296.777 530.26,296.797 528.04,296.73C527.78,296.723 527.517,296.733 527.25,296.76ZM541.13,279.28C541.118,279.315 541.111,279.353 541.111,279.39C541.111,279.571 541.259,279.719 541.44,279.72L552.8,279.78C552.802,279.78 552.804,279.78 552.806,279.78C552.987,279.78 553.136,279.631 553.136,279.45C553.136,279.416 553.13,279.382 553.12,279.35L547.52,262.77C547.473,262.64 547.348,262.553 547.21,262.553C547.072,262.553 546.947,262.64 546.9,262.77L541.13,279.28Z" style="fill:white;fill-rule:nonzero;"/>
        <path d="M590.5,256.44L590.5,296.04C590.5,296.419 590.189,296.73 589.81,296.73L581.44,296.73C581.061,296.73 580.75,296.419 580.75,296.04L580.75,256.44C580.75,256.061 580.439,255.75 580.06,255.75L568.44,255.75C568.061,255.75 567.75,255.439 567.75,255.06L567.75,247.69C567.75,247.311 568.061,247 568.44,247C568.44,247 602.82,247 602.82,247C603.199,247 603.51,247.311 603.51,247.69C603.51,247.693 603.51,247.697 603.51,247.7L603.4,255.07C603.395,255.445 603.085,255.75 602.71,255.75L591.19,255.75C590.811,255.75 590.5,256.061 590.5,256.44Z" style="fill:white;fill-rule:nonzero;"/>
        <path d="M617.43,256.37L617.45,266.63C617.45,266.97 617.73,267.25 618.07,267.25L636.38,267.25C636.72,267.25 637,267.53 637,267.87L637,275.38C637,275.72 636.72,276 636.38,276L618.05,276C617.71,276 617.43,276.28 617.43,276.62L617.45,287.38C617.45,287.72 617.73,288 618.07,288C618.07,288 639.86,288 639.86,288C640.2,288 640.48,288.28 640.48,288.62C640.48,288.623 640.48,288.627 640.48,288.63L640.42,296.02C640.415,296.356 640.136,296.63 639.8,296.63L608.38,296.79C608.04,296.79 607.76,296.51 607.76,296.17L607.74,247.62C607.74,247.28 608.02,247 608.36,247L639.83,247C640.166,247 640.445,247.274 640.45,247.61L640.52,255.12C640.52,255.123 640.52,255.127 640.52,255.13C640.52,255.47 640.24,255.75 639.9,255.75C639.9,255.75 618.05,255.75 618.05,255.75C617.71,255.75 617.43,256.03 617.43,256.37Z" style="fill:white;fill-rule:nonzero;"/>
        <path d="M662.43,276.92L656.6,276.81C656.2,276.803 656,277 656,277.4L656,296.04C656,296.4 655.82,296.583 655.46,296.59L646.86,296.77C646.453,296.777 646.25,296.577 646.25,296.17L646.25,247.52C646.25,247.255 646.465,247.035 646.73,247.03C653.223,246.943 659.79,246.97 666.43,247.11C682.09,247.45 688.33,268.64 673.46,274.89C673.452,274.894 673.444,274.897 673.436,274.901C673.064,275.078 672.901,275.525 673.076,275.891C673.08,275.901 673.085,275.911 673.09,275.92L683.52,295.96C683.56,296.037 683.58,296.123 683.58,296.21C683.58,296.512 683.332,296.76 683.03,296.76C683.03,296.76 683.03,296.76 683.03,296.76L673.15,296.73C672.763,296.73 672.487,296.557 672.32,296.21L663.09,277.34C662.966,277.088 662.711,276.925 662.43,276.92ZM656.01,256.3L655.97,268.1C655.97,268.429 656.241,268.7 656.57,268.7L665.06,268.73C668.859,268.742 671.995,265.945 672.01,262.53L672.01,261.99C672.01,261.988 672.01,261.986 672.01,261.984C672.022,258.567 668.903,255.743 665.102,255.73C665.101,255.73 665.101,255.73 665.1,255.73L656.61,255.7C656.281,255.7 656.01,255.971 656.01,256.3Z" style="fill:white;fill-rule:nonzero;"/>
        <path d="M698,278.51L698,296.08C698,296.367 697.767,296.605 697.48,296.61L688.86,296.77C688.857,296.77 688.853,296.77 688.85,296.77C688.521,296.77 688.25,296.499 688.25,296.17C688.25,296.17 688.25,247.5 688.25,247.5C688.25,247.268 688.438,247.075 688.67,247.07C696.12,246.87 709.47,245.69 715.75,248.92C728.13,255.28 725.85,273.04 712.81,277.17C708.66,278.48 703.2,277.95 698.49,278.02C698.163,278.02 698,278.183 698,278.51ZM697.96,256.53L697.98,268.47C697.98,268.914 698.346,269.28 698.79,269.28L707.14,269.27C710.914,269.264 714.015,266.447 714.01,263.03L714.01,261.93C714.01,261.929 714.01,261.929 714.01,261.928C714.004,258.511 710.894,255.704 707.12,255.71L698.77,255.72C698.326,255.72 697.96,256.086 697.96,256.53Z" style="fill:white;fill-rule:nonzero;"/>
        <path d="M738.04,277.46L738.02,296.07C738.02,296.417 737.847,296.593 737.5,296.6L729.15,296.79C729.147,296.79 729.143,296.79 729.14,296.79C728.794,296.796 728.506,296.511 728.5,296.16C728.5,296.157 728.5,296.153 728.5,296.15L728.5,247.71C728.5,247.25 728.73,247.017 729.19,247.01C733.503,246.963 739.677,246.987 747.71,247.08C764.28,247.27 770.73,267.4 755.44,275.13C755.147,275.283 755.077,275.507 755.23,275.8L765.74,296.11C765.756,296.14 765.768,296.173 765.776,296.206C765.832,296.435 765.684,296.671 765.45,296.727C765.417,296.735 765.384,296.74 765.35,296.74L755.68,296.75C755.158,296.749 754.681,296.454 754.45,295.99L745.31,277.5C745.121,277.121 744.733,276.881 744.31,276.88L738.6,276.89C738.227,276.897 738.04,277.087 738.04,277.46ZM738.14,256.17L738.1,268.23C738.1,268.488 738.312,268.7 738.57,268.7L747.18,268.73C751.028,268.743 754.205,265.922 754.22,262.48L754.22,262.04C754.22,262.038 754.22,262.036 754.22,262.034C754.232,258.589 751.073,255.743 747.222,255.73C747.221,255.73 747.221,255.73 747.22,255.73L738.61,255.7C738.352,255.7 738.14,255.912 738.14,256.17Z" style="fill:white;fill-rule:nonzero;"/>
        <path d="M882.25,268.57L882.25,275.89C882.25,276.225 881.975,276.5 881.64,276.5L863.36,276.5C863.025,276.5 862.75,276.775 862.75,277.11L862.75,296.11C862.75,296.445 862.475,296.72 862.14,296.72L853.61,296.76C853.275,296.76 853,296.485 853,296.15L853,247.61C853,247.275 853.275,247 853.61,247L885.14,247C885.475,247 885.75,247.275 885.75,247.61L885.75,255.14C885.75,255.475 885.475,255.75 885.14,255.75L863.36,255.75C863.025,255.75 862.75,256.025 862.75,256.36L862.75,267.41C862.75,267.745 863.025,268.02 863.36,268.02L881.64,267.96C881.975,267.96 882.25,268.235 882.25,268.57Z" style="fill:white;fill-rule:nonzero;"/>
        <path d="M950.29,288.57L947.74,296.05C947.636,296.354 947.351,296.562 947.03,296.57L938.44,296.8C938.435,296.8 938.43,296.8 938.425,296.8C938.002,296.8 937.655,296.453 937.655,296.03C937.655,295.941 937.67,295.853 937.7,295.77L955.24,247.51C955.349,247.206 955.637,247.002 955.96,247L962.48,247C962.803,247.002 963.091,247.206 963.2,247.51L980.81,295.73C980.84,295.813 980.855,295.901 980.855,295.99C980.855,296.412 980.508,296.76 980.085,296.76C980.083,296.76 980.082,296.76 980.08,296.76L971.58,296.72C971.255,296.716 970.966,296.507 970.86,296.2L968.21,288.23C968.105,287.908 967.799,287.692 967.46,287.7L951,288.05C950.679,288.058 950.394,288.266 950.29,288.57ZM959.27,262.24L953.5,279.02C953.333,279.507 953.507,279.75 954.02,279.75L964.84,279.75C965.267,279.75 965.413,279.547 965.28,279.14L959.59,262.24C959.566,262.173 959.502,262.127 959.43,262.127C959.358,262.127 959.294,262.173 959.27,262.24Z" style="fill:white;fill-rule:nonzero;"/>
        <path d="M1031.57,288L1053.43,288C1053.74,288 1054,288.257 1054,288.57L1054,296.12C1054,296.433 1053.74,296.69 1053.43,296.69L1021.82,296.78C1021.51,296.78 1021.25,296.523 1021.25,296.21L1021.25,247.57C1021.25,247.257 1021.51,247 1021.82,247L1053.43,247C1053.74,247 1054,247.257 1054,247.57L1054,255.18C1054,255.493 1053.74,255.75 1053.43,255.75L1031.57,255.75C1031.26,255.75 1031,256.007 1031,256.32L1031,266.68C1031,266.993 1031.26,267.25 1031.57,267.25C1031.57,267.25 1049.98,267.25 1049.98,267.25C1050.29,267.25 1050.55,267.507 1050.55,267.82C1050.55,267.823 1050.55,267.827 1050.55,267.83L1050.48,275.44C1050.47,275.749 1050.22,276 1049.91,276L1031.57,276C1031.26,276 1031,276.257 1031,276.57L1031,287.43C1031,287.743 1031.26,288 1031.57,288Z" style="fill:white;fill-rule:nonzero;"/>
    </g>
</svg>
