<svg width="1138" height="446" viewBox="0 0 1138 446" fill="none" xmlns="http://www.w3.org/2000/svg">
<path d="M274.9 86.8L298.3 63.4L321.7 86.8L298.3 110.2L321.8 133.7L345.2 110.3L368.7 133.8L345.3 157.2L368.7 180.6L392.1 157.2L415.6 180.6L223.3 372.9L42.6997 192.4C42.2997 187.3 43.1997 182.2 45.3997 177.7C47.5997 173.1 50.9997 169.2 55.2997 166.5C59.5997 163.7 64.4997 162.1 69.5997 161.9C76.6997 161.6 83.2997 158.7 88.2997 153.7C93.2997 148.7 96.1997 142 96.4997 135C96.7997 127.9 99.6997 121.3 104.7 116.3C109.7 111.3 116.4 108.4 123.4 108.1C130.5 107.8 137.1 104.9 142.1 99.9C147.1 94.9 150 88.2 150.3 81.2C150.6 74.1 153.5 67.5 158.5 62.5C163.5 57.5 170.2 54.6 177.2 54.3C184.3 54 190.9 51.1 195.9 46.1C200.9 41.1 203.8 34.4 204.1 27.4C204.3 22.3 205.9 17.4 208.7 13.1C211.5 8.79996 215.4 5.39996 219.9 3.19996C224.5 0.999961 229.6 -4.00841e-05 234.6 0.49996L274.4 40.3L251 63.7L274.9 86.8L251.4 110.3L228 86.8L204.5 110.3L227.9 133.7L204.4 157.2L181 133.8L157.5 157.3L180.9 180.7L204.4 157.2L227.8 180.6L204.3 204.1L227.8 227.6L251.3 204.1L274.8 227.6L251.3 251.1L274.7 274.5L298.2 251L274.8 227.6L298.3 204.1L321.7 227.5L345.2 204L321.8 180.6L298.3 204.1L274.8 180.6L251.3 204.1L227.8 180.6L251.3 157.1L274.8 180.6L298.3 157.1L274.8 133.6L251.3 157.1L227.9 133.7L251.4 110.2L274.8 133.6L298.3 157.1L321.8 180.6L345.3 157.1L321.8 133.6L298.3 157.1L274.8 133.6L298.3 110.1L274.9 86.8Z" fill="white"/>
<path d="M1090.5 154.1C1091.9 154.1 1093.3 154.7 1094.3 155.7C1095.3 156.7 1095.9 158.1 1095.9 159.5V287.5C1095.9 288.9 1095.3 290.3 1094.3 291.3C1093.3 292.3 1091.9 292.9 1090.5 292.9H925.5C924.1 292.9 922.7 292.3 921.7 291.3C920.7 290.3 920.1 288.9 920.1 287.5V159.5C920.1 158.1 920.7 156.7 921.7 155.7C922.7 154.7 924.1 154.1 925.5 154.1H1090.5ZM1054.6 183.1H961.3C960.4 183.1 959.4 183.5 958.7 184.2C958 184.9 957.6 185.8 957.6 186.8V260.5C957.6 261.4 958 262.4 958.7 263.1C959.4 263.8 960.3 264.2 961.3 264.2H1054.6C1055.5 264.2 1056.5 263.8 1057.2 263.1C1057.9 262.4 1058.3 261.5 1058.3 260.5V186.8C1058.3 185.9 1057.9 184.9 1057.2 184.2C1056.5 183.5 1055.6 183.1 1054.6 183.1Z" fill="white"/>
<path d="M901.3 154H734.1C732.7 154 731.3 154.6 730.2 155.6C729.2 156.6 728.6 158 728.6 159.4V177.5C728.6 178.9 729.2 180.3 730.2 181.3C731.2 182.3 732.6 182.9 734.1 182.9H832.5L729.6 287.1C729 287.8 728.6 288.7 728.7 289.7C728.7 290.6 729.1 291.5 729.8 292.2C730.5 292.8 731.4 293.2 732.3 293.2H899.5C900.9 293.2 902.3 292.6 903.3 291.6C904.3 290.6 904.9 289.2 904.9 287.8V269.7C904.9 268.3 904.3 266.9 903.3 265.9C902.3 264.9 900.9 264.3 899.5 264.3H801.1L904 160C904.6 159.3 905 158.4 904.9 157.4C904.9 156.5 904.5 155.6 903.8 154.9C903.1 154.3 902.2 154 901.3 154Z" fill="white"/>
<path d="M675 159.7C675 158.3 675.6 156.9 676.6 155.9C677.6 154.9 679 154.3 680.4 154.3H707.2C708.6 154.3 710 154.9 711 155.9C712 156.9 712.6 158.3 712.6 159.7V287.7C712.6 289.1 712 290.5 711 291.5C710 292.5 708.6 293.1 707.2 293.1H680.4C679 293.1 677.6 292.5 676.6 291.5C675.6 290.5 675 289.1 675 287.7V159.7Z" fill="white"/>
<path d="M520.5 258.3V238H653.3C654.7 238 656.1 237.4 657.1 236.4C658.1 235.4 658.7 234 658.7 232.6V214.5C658.7 213.1 658.1 211.7 657.1 210.7C656.1 209.7 654.7 209.1 653.3 209.1H520.5V191.3V186.9C520.5 186 520.9 185 521.6 184.3C522.3 183.6 523.2 183.2 524.2 183.2L528.3 183.1H653.4C654.8 183.1 656.2 182.5 657.2 181.5C658.2 180.5 658.8 179.1 658.8 177.7V159.6C658.8 158.2 658.2 156.8 657.2 155.8C656.2 154.8 654.8 154.2 653.4 154.2H488.4C487 154.2 485.6 154.8 484.6 155.8C483.6 156.8 483 158.2 483 159.6V287.6C483 289 483.6 290.4 484.6 291.4C485.6 292.4 487 293 488.4 293H653.4C654.8 293 656.2 292.4 657.2 291.4C658.2 290.4 658.8 289 658.8 287.6V269.5C658.8 268.1 658.2 266.7 657.2 265.7C656.2 264.7 654.8 264.1 653.4 264.1H527.9L524.1 264C523.2 264 522.2 263.6 521.5 262.9C520.8 262.2 520.4 261.3 520.4 260.3L520.5 258.3Z" fill="white"/>
<path d="M1123.7 154C1116.1 154 1110 160.1 1110 167.7C1110 175.3 1116.1 181.4 1123.7 181.4C1131.3 181.4 1137.4 175.3 1137.4 167.7C1137.4 160.1 1131.3 154 1123.7 154ZM1123.7 180.2C1116.8 180.2 1111.2 174.6 1111.2 167.7C1111.2 160.8 1116.8 155.2 1123.7 155.2C1130.6 155.2 1136.2 160.8 1136.2 167.7C1136.2 174.6 1130.6 180.2 1123.7 180.2Z" fill="white"/>
<path d="M1120 161.6H1125C1125.7 161.6 1126.3 161.7 1126.7 161.9C1127.5 162.3 1127.9 163 1127.9 164.1C1127.9 165.1 1127.6 165.8 1127.1 166.2C1126.5 166.6 1125.8 166.8 1124.8 166.8H1120.1V161.6H1120ZM1120 175V168.5H1124.7C1125.5 168.5 1126.2 168.6 1126.5 168.8C1127.2 169.1 1127.6 169.8 1127.6 170.8L1127.7 173.3C1127.7 173.9 1127.8 174.3 1127.8 174.5C1127.8 174.7 1127.9 174.9 1128 175H1130.5V174.7C1130.2 174.6 1130 174.3 1129.8 173.8C1129.7 173.5 1129.7 173.1 1129.7 172.5L1129.6 170.5C1129.6 169.6 1129.4 169 1129.1 168.6C1128.8 168.2 1128.4 167.9 1127.8 167.7C1128.5 167.4 1129 166.9 1129.4 166.3C1129.8 165.7 1130 165 1130 164.1C1130 162.4 1129.3 161.2 1127.9 160.5C1127.2 160.2 1126.2 160 1125 160H1118V175H1120Z" fill="white"/>
<path d="M33.33 201.718L0.520508 234.528L190.448 424.455L223.257 391.645L33.33 201.718Z" fill="white"/>
<path d="M445.7 210.7V244.2H412.2V277.7H378.7V311.2H345.2V344.7H311.7V378.3H278.2V411.8H244.7V445.3H211.2L190.4 424.5L223.3 391.7L424.9 190L445.7 210.7Z" fill="white"/>
</svg>
