<?xml version="1.0" encoding="UTF-8" standalone="no"?>
<!DOCTYPE svg PUBLIC "-//W3C//DTD SVG 1.1//EN" "http://www.w3.org/Graphics/SVG/1.1/DTD/svg11.dtd">
<svg width="100%" height="100%" viewBox="0 0 152 45" version="1.1" xmlns="http://www.w3.org/2000/svg" xmlns:xlink="http://www.w3.org/1999/xlink" xml:space="preserve" xmlns:serif="http://www.serif.com/" style="fill-rule:evenodd;clip-rule:evenodd;stroke-linejoin:round;stroke-miterlimit:2;">
    <g transform="matrix(1,0,0,1,-2.3503,-2.8582)">
        <path d="M53.504,7.437L61.738,7.437C62.485,7.437 63.106,8.059 63.106,8.83C63.106,9.576 62.485,10.198 61.738,10.198L55.121,10.198L55.121,13.905L61.216,13.905C61.962,13.905 62.584,14.527 62.584,15.273C62.584,16.044 61.962,16.666 61.216,16.666L55.121,16.666L55.121,21.418C55.121,22.288 54.375,23.01 53.504,23.01C52.609,23.01 51.887,22.288 51.887,21.418L51.887,9.054C51.887,8.009 52.459,7.437 53.504,7.437ZM70.743,23.209C67.385,23.209 64.699,20.622 64.699,17.288C64.699,14.004 67.335,11.343 70.793,11.343C74.226,11.343 76.838,14.029 76.838,17.288C76.838,20.696 74.127,23.209 70.743,23.209ZM70.793,20.497C72.609,20.497 73.803,19.204 73.803,17.288C73.803,15.422 72.535,14.054 70.743,14.054C68.928,14.054 67.733,15.422 67.733,17.288C67.733,19.204 68.977,20.497 70.793,20.497ZM85.943,21.791C85.943,22.437 85.42,23.01 84.799,23.084C83.356,23.308 82.286,23.209 81.54,22.686C80.694,22.064 80.271,21.02 80.271,19.353L80.271,14.328L79.823,14.328C79.127,14.328 78.555,13.731 78.555,13.009C78.555,12.313 79.127,11.716 79.823,11.716L80.271,11.716L80.271,10.149C80.271,9.328 80.943,8.631 81.788,8.631C82.634,8.631 83.306,9.328 83.306,10.149L83.306,11.716L84.102,11.716C84.823,11.716 85.42,12.288 85.42,13.009C85.42,13.756 84.823,14.328 84.102,14.328L83.306,14.328L83.306,19.054C83.306,19.676 83.455,20.099 83.729,20.298C83.953,20.472 84.276,20.522 84.649,20.472C85.346,20.447 85.943,21.069 85.943,21.791ZM93.804,23.209C90.445,23.209 87.759,20.622 87.759,17.288C87.759,14.004 90.396,11.343 93.853,11.343C97.286,11.343 99.898,14.029 99.898,17.288C99.898,20.696 97.187,23.209 93.804,23.209ZM93.853,20.497C95.669,20.497 96.863,19.204 96.863,17.288C96.863,15.422 95.595,14.054 93.804,14.054C91.988,14.054 90.794,15.422 90.794,17.288C90.794,19.204 92.037,20.497 93.853,20.497ZM53.28,44.085C52.435,44.085 51.738,43.388 51.738,42.567L51.738,29.483C51.738,28.662 52.435,27.965 53.28,27.965C54.101,27.965 54.798,28.662 54.798,29.483L54.798,34.01C55.743,32.891 56.987,32.219 58.554,32.219C61.291,32.219 63.878,34.383 63.878,38.065C63.878,41.572 61.539,44.085 58.579,44.085C56.962,44.085 55.693,43.388 54.798,42.368L54.773,42.841C54.649,43.562 54.002,44.085 53.28,44.085ZM57.683,41.473C59.624,41.473 60.843,40.08 60.843,38.065C60.843,36.124 59.574,34.731 57.683,34.731C56.44,34.731 55.32,35.428 54.798,36.622L54.798,39.532C55.345,40.751 56.465,41.473 57.683,41.473ZM70.146,44.11C67.758,44.11 65.992,42.667 65.992,40.403C65.992,38.189 67.833,36.771 70.395,36.771C71.639,36.771 72.734,37.12 73.43,37.667L73.43,36.821C73.43,35.627 72.609,34.955 71.191,34.856C70.345,34.756 69.4,34.881 68.455,35.154C67.733,35.328 66.937,34.806 66.937,33.985C66.937,33.463 67.261,33.04 67.758,32.866C68.803,32.517 70.022,32.244 71.266,32.244C74.624,32.244 76.465,33.836 76.465,36.746L76.465,42.443C76.465,43.363 75.843,44.085 74.948,44.085C74.226,44.085 73.579,43.612 73.43,42.866L73.405,42.766C72.734,43.513 71.564,44.11 70.146,44.11ZM71.216,41.821C72.311,41.821 73.53,41.348 73.53,40.279C73.53,39.234 72.311,38.761 71.216,38.761C70.122,38.761 69.027,39.234 69.027,40.279C69.027,41.348 70.122,41.821 71.216,41.821ZM85.918,42.667C85.918,43.314 85.396,43.886 84.774,43.96C83.331,44.184 82.261,44.085 81.515,43.562C80.669,42.941 80.246,41.896 80.246,40.229L80.246,35.204L79.798,35.204C79.102,35.204 78.53,34.607 78.53,33.886C78.53,33.189 79.102,32.592 79.798,32.592L80.246,32.592L80.246,31.025C80.246,30.204 80.918,29.507 81.764,29.507C82.609,29.507 83.281,30.204 83.281,31.025L83.281,32.592L84.077,32.592C84.799,32.592 85.396,33.164 85.396,33.886C85.396,34.632 84.799,35.204 84.077,35.204L83.281,35.204L83.281,39.931C83.281,40.552 83.43,40.975 83.704,41.174C83.928,41.348 84.251,41.398 84.624,41.348C85.321,41.324 85.918,41.945 85.918,42.667ZM93.779,44.085C90.421,44.085 87.734,41.498 87.734,38.164C87.734,34.881 90.371,32.219 93.829,32.219C97.261,32.219 99.873,34.906 99.873,38.164C99.873,41.572 97.162,44.085 93.779,44.085ZM93.829,41.373C95.645,41.373 96.839,40.08 96.839,38.164C96.839,36.299 95.57,34.93 93.779,34.93C91.963,34.93 90.769,36.299 90.769,38.164C90.769,40.08 92.013,41.373 93.829,41.373ZM104.152,44.085C103.306,44.085 102.61,43.388 102.61,42.567L102.61,29.483C102.61,28.662 103.306,27.965 104.152,27.965C104.973,27.965 105.67,28.662 105.67,29.483L105.67,34.184C106.441,32.965 107.66,32.219 109.177,32.219C111.963,32.219 113.58,34.109 113.58,36.945L113.58,42.567C113.58,43.388 112.909,44.085 112.063,44.085C111.217,44.085 110.545,43.388 110.545,42.567L110.545,37.891C110.545,36.075 109.65,35.03 108.207,35.03C106.714,35.03 105.67,36.174 105.67,37.965L105.67,42.567C105.67,43.388 104.973,44.085 104.152,44.085ZM119.899,47.816C119.103,47.816 118.431,47.169 118.431,46.349C118.431,46.174 118.481,45.975 118.531,45.801L119.65,42.841L116.267,34.259C116.192,34.085 116.143,33.91 116.143,33.687C116.143,32.891 116.814,32.244 117.61,32.244C118.232,32.244 118.755,32.642 118.978,33.189L121.242,39.383L123.506,33.189C123.73,32.642 124.252,32.244 124.874,32.244C125.67,32.244 126.317,32.891 126.317,33.687C126.317,33.91 126.292,34.085 126.217,34.259L121.267,46.896C121.043,47.443 120.521,47.816 119.899,47.816ZM127.511,42.368C127.511,41.398 128.257,40.652 129.203,40.652C130.123,40.652 130.869,41.423 130.869,42.368C130.869,43.339 130.123,44.085 129.203,44.085C128.257,44.085 127.511,43.339 127.511,42.368ZM138.854,44.085C135.446,44.085 132.859,41.647 132.859,38.164C132.859,34.707 135.446,32.244 138.854,32.244C139.75,32.244 140.596,32.393 141.367,32.692C141.889,32.866 142.287,33.338 142.287,33.91C142.287,34.781 141.466,35.378 140.695,35.179C140.272,35.005 139.8,34.93 139.252,34.93C137.337,34.93 135.894,36.075 135.894,38.164C135.894,40.254 137.337,41.373 139.252,41.373C139.8,41.373 140.272,41.299 140.646,41.125C141.442,40.901 142.287,41.523 142.287,42.393C142.287,42.99 141.889,43.463 141.367,43.637C140.596,43.936 139.75,44.085 138.854,44.085ZM152.511,43.737L145.671,43.737C144.999,43.737 144.402,43.164 144.402,42.468C144.402,42.144 144.551,41.846 144.725,41.622L149.999,35.304L145.77,35.304C145.024,35.304 144.402,34.707 144.402,33.96C144.402,33.214 145.024,32.592 145.77,32.592L152.586,32.592C153.283,32.592 153.88,33.164 153.88,33.861C153.88,34.184 153.755,34.508 153.556,34.707L148.283,41.025L152.511,41.025C153.258,41.025 153.88,41.622 153.88,42.368C153.88,43.115 153.258,43.737 152.511,43.737Z" style="fill:white;"/>
        <path d="M29.44,3.674L32.157,7.374L41.205,7.374C42.033,7.374 42.705,8.046 42.705,8.874L42.705,43.579C42.705,44.408 42.033,45.079 41.205,45.079L3.85,45.079C3.022,45.079 2.35,44.408 2.35,43.579L2.35,8.874C2.35,8.046 3.022,7.374 3.85,7.374L12.898,7.374L15.615,3.674C15.898,3.289 16.347,3.062 16.824,3.062L28.231,3.062C28.708,3.062 29.157,3.289 29.44,3.674ZM27.471,6.062L17.583,6.062L14.866,9.762C14.583,10.147 14.135,10.374 13.657,10.374L5.35,10.374C5.35,10.374 5.35,42.079 5.35,42.079L39.705,42.079C39.705,42.079 39.705,10.374 39.705,10.374L31.398,10.374C30.92,10.374 30.471,10.147 30.189,9.762L27.471,6.062ZM12.976,22.584C12.493,23.256 11.555,23.41 10.883,22.927C10.21,22.444 10.056,21.506 10.539,20.834C10.539,20.834 11.986,18.83 14.347,18.428C15.867,18.17 17.825,18.491 19.983,20.648C20.568,21.234 20.568,22.184 19.983,22.769C19.397,23.355 18.447,23.355 17.861,22.769C16.681,21.589 15.682,21.244 14.85,21.386C13.685,21.584 12.976,22.584 12.976,22.584ZM30.271,18.352C31.367,18.352 32.257,19.242 32.257,20.339C32.257,21.435 31.367,22.326 30.271,22.326C29.174,22.326 28.284,21.435 28.284,20.339C28.284,19.242 29.174,18.352 30.271,18.352ZM9.613,29.722C9.151,29.035 9.333,28.102 10.02,27.64C10.707,27.177 11.64,27.36 12.102,28.046C12.102,28.046 15.125,32.554 20.247,33.454C23.733,34.067 28.117,32.926 33.219,27.823C33.805,27.238 34.755,27.238 35.341,27.823C35.926,28.409 35.926,29.359 35.341,29.945C29.244,36.042 23.893,37.141 19.728,36.409C13.375,35.293 9.613,29.722 9.613,29.722ZM3.935,5.858C3.107,5.858 2.435,5.186 2.435,4.358C2.435,3.53 3.107,2.858 3.935,2.858L10.858,2.858C11.686,2.858 12.358,3.53 12.358,4.358C12.358,5.186 11.686,5.858 10.858,5.858L3.935,5.858Z" style="fill:white;"/>
    </g>
</svg>
