<?xml version="1.0" encoding="UTF-8" standalone="no"?>
<!DOCTYPE svg PUBLIC "-//W3C//DTD SVG 1.1//EN" "http://www.w3.org/Graphics/SVG/1.1/DTD/svg11.dtd">
<svg width="100%" height="100%" viewBox="0 0 1029 172" version="1.1" xmlns="http://www.w3.org/2000/svg" xmlns:xlink="http://www.w3.org/1999/xlink" xml:space="preserve" xmlns:serif="http://www.serif.com/" style="fill-rule:evenodd;clip-rule:evenodd;stroke-linejoin:round;stroke-miterlimit:2;">
    <g transform="matrix(1,0,0,1,0,4.58455e-05)">
        <g transform="matrix(2.06614,0,0,2.06614,0,-4.13231)">
            <g id="g5512">
                <g id="g24728" transform="matrix(4.39168,0,0,-4.39168,379.349,2.01011)">
                    <path id="path24730" d="M0,0L0,-14.77C0,-15.73 0.474,-16.223 1.44,-16.272C1.452,-16.273 6.307,-16.273 6.307,-16.273L6.307,-17.93C6.307,-18.115 6.207,-18.245 6.001,-18.245L-1.878,-18.245C-4.312,-18.245 -4.672,-16.905 -4.672,-15.688L-4.672,-1.004C-4.672,-0.311 -4.408,0.017 -3.589,-0.001L0,0" style="fill:white;fill-rule:nonzero;"/>
                </g>
                <g id="g24732" transform="matrix(4.39168,0,0,-4.39168,339.472,2.01011)">
                    <path id="path24734" d="M0,0L0.001,-17.283C0.001,-18.052 -0.325,-18.245 -0.979,-18.245L-4.676,-18.245L-4.676,-0.954C-4.676,-0.384 -4.458,-0.001 -3.629,-0.001L0,0" style="fill:white;fill-rule:nonzero;"/>
                </g>
                <g id="g24736" transform="matrix(4.39168,0,0,-4.39168,0,13.0539)">
                    <path id="path24738" d="M0,0C0,1.391 0.003,2.517 2.288,2.517L12.332,2.517L12.332,0.761C12.332,0.636 12.273,0.523 12.098,0.523L6.079,0.525C5.27,0.525 4.863,0.137 4.863,-0.679L4.863,-5.312L11.945,-5.312L11.946,-7.152C11.946,-7.315 11.844,-7.401 11.684,-7.401L4.863,-7.401L4.863,-14.752C4.848,-15.461 4.494,-15.743 3.716,-15.729L0,-15.729L0,0" style="fill:white;fill-rule:nonzero;"/>
                </g>
                <g id="g24740" transform="matrix(4.39168,0,0,-4.39168,86.0146,2.00221)">
                    <path id="path24742" d="M0,0L0,-13.907C0,-15.101 0.169,-15.938 1.007,-16.422C2.13,-17.072 4.032,-17.082 5.177,-16.44C5.96,-16.003 6.259,-15.301 6.259,-13.911L6.259,-0.927C6.259,-0.343 6.482,0 7.298,0L10.933,0L10.934,-13.496C10.934,-16.631 8.96,-17.917 7.215,-18.394C4.893,-19.027 1.366,-19.037 -0.825,-18.379C-3.443,-17.591 -4.666,-16.041 -4.669,-13.497L-4.671,-0.937C-4.671,-0.331 -4.453,0 -3.756,0L0,0" style="fill:white;fill-rule:nonzero;"/>
                </g>
                <g id="g24744" transform="matrix(4.39168,0,0,-4.39168,474.263,2.01451)">
                    <path id="path24746" d="M0,0C-0.922,0 -1.448,-0.43 -1.656,-1.253L-4.633,-13.834L-4.714,-13.832L-7.789,0L-11.993,0C-12.804,0 -13.059,-0.417 -13.059,-1.061L-13.059,-18.244L-11.283,-18.244C-10.997,-18.244 -10.879,-18.102 -10.879,-17.811L-10.879,-3.404L-10.598,-3.404L-6.797,-18.244L-4.308,-18.244C-3.37,-18.244 -3.021,-17.859 -2.79,-16.932L0.622,-3.404L0.898,-3.404L0.897,-18.244L4.218,-18.239C5.033,-18.239 5.405,-17.926 5.405,-17.125L5.405,0.001L0,0" style="fill:white;fill-rule:nonzero;"/>
                </g>
                <g id="g24748" transform="matrix(4.39168,0,0,-4.39168,231.58,45.5541)">
                    <path id="path24750" d="M0,0L-4.674,0L-4.674,-8.33L-0.978,-8.33C-0.327,-8.33 0.001,-8.139 0.001,-7.368C0.001,-7.368 0,-3.805 0,0" style="fill:white;fill-rule:nonzero;"/>
                </g>
                <g id="g24752" transform="matrix(4.39168,0,0,-4.39168,230.383,29.9214)">
                    <path id="path24754" d="M0,0C0.164,0.133 0.26,0.233 0.272,0.519L0.272,6.354L-3.357,6.354C-4.174,6.354 -4.401,5.955 -4.401,5.387L-4.401,-3.447L0,0" style="fill:white;fill-rule:nonzero;"/>
                </g>
                <g id="g24756" transform="matrix(4.39168,0,0,-4.39168,160.013,75.7983)">
                    <path id="path24758" d="M0,0C2.03,0.287 2.705,1.493 2.705,3.271L2.705,15.811C2.705,16.561 3.111,16.804 3.635,16.804L7.379,16.804L7.379,4.947C7.379,2.031 6.765,0.558 5.038,-0.685C4.139,-1.33 2.567,-2.066 -0.839,-2.066C-2.789,-2.066 -3.656,-1.956 -3.773,-1.929C-3.938,-1.891 -4.005,-1.79 -4.005,-1.647L-4.005,-0.116C-3.204,-0.139 -1.37,-0.195 0,0" style="fill:white;fill-rule:nonzero;"/>
                </g>
                <g id="g24760" transform="matrix(4.39168,0,0,-4.39168,262.677,2.00221)">
                    <path id="path24762" d="M0,0C-2.283,0 -2.284,-1.126 -2.284,-2.517L-2.284,-7.218C-2.284,-7.315 -2.326,-7.354 -2.37,-7.397L-5.567,-9.916L-2.284,-9.916L-2.284,-18.245L1.43,-18.245C2.208,-18.26 2.562,-17.977 2.575,-17.269L2.575,-9.918L9.396,-9.918C9.556,-9.918 9.659,-9.831 9.659,-9.669L9.659,-7.828L2.575,-7.828L2.575,-3.195C2.575,-2.38 2.983,-1.991 3.791,-1.991L9.812,-1.993C9.985,-1.993 10.046,-1.881 10.046,-1.756L10.046,0L0,0" style="fill:white;fill-rule:nonzero;"/>
                </g>
            </g>
        </g>
    </g>
</svg>
