<svg width="138" height="24" viewBox="0 0 138 24" fill="none" xmlns="http://www.w3.org/2000/svg">
<path d="M0.264648 15.0002V0.454723H3.33993V6.45614H9.58283V0.454723H12.651V15.0002H9.58283V8.99166H3.33993V15.0002H0.264648Z" fill="white"/>
<path d="M20.2618 0.454723V15.0002H17.1865V0.454723H20.2618Z" fill="white"/>
<path d="M32.6826 4.63796C32.6258 4.06505 32.382 3.61997 31.9511 3.30273C31.5202 2.9855 30.9355 2.82688 30.1968 2.82688C29.6949 2.82688 29.2712 2.8979 28.9255 3.03995C28.5799 3.17726 28.3147 3.36902 28.1301 3.61523C27.9501 3.86145 27.8602 4.1408 27.8602 4.4533C27.8507 4.71372 27.9052 4.94099 28.0235 5.13512C28.1466 5.32925 28.3147 5.49734 28.5278 5.63938C28.7409 5.77669 28.9871 5.89743 29.2664 6.0016C29.5458 6.10103 29.8441 6.18626 30.1613 6.25728L31.4681 6.56978C32.1026 6.71183 32.685 6.90122 33.2153 7.13796C33.7456 7.3747 34.2049 7.6659 34.5931 8.01154C34.9814 8.35719 35.282 8.76438 35.4951 9.23313C35.7129 9.70188 35.8242 10.2393 35.8289 10.8453C35.8242 11.7355 35.5969 12.5073 35.1471 13.1607C34.702 13.8094 34.0581 14.3136 33.2153 14.6735C32.3772 15.0286 31.3663 15.2061 30.1826 15.2061C29.0084 15.2061 27.9856 15.0262 27.1144 14.6664C26.248 14.3065 25.5709 13.7739 25.0832 13.0684C24.6002 12.3581 24.3469 11.4798 24.3232 10.4334H27.2991C27.3322 10.9211 27.4719 11.3283 27.7181 11.655C27.9691 11.977 28.3029 12.2208 28.7195 12.3865C29.141 12.5475 29.6168 12.628 30.1471 12.628C30.6679 12.628 31.1201 12.5523 31.5036 12.4007C31.8919 12.2492 32.1926 12.0385 32.4056 11.7686C32.6187 11.4988 32.7252 11.1886 32.7252 10.8382C32.7252 10.5115 32.6282 10.2369 32.434 10.0144C32.2446 9.79184 31.9653 9.60245 31.596 9.4462C31.2314 9.28995 30.7839 9.14791 30.2536 9.02006L28.6698 8.62234C27.4435 8.32404 26.4752 7.85766 25.765 7.22319C25.0548 6.58872 24.702 5.73408 24.7068 4.65927C24.702 3.77859 24.9364 3.00917 25.4099 2.35103C25.8881 1.69289 26.5439 1.17916 27.3772 0.809837C28.2106 0.440519 29.1575 0.255859 30.2181 0.255859C31.2977 0.255859 32.2399 0.440519 33.0448 0.809837C33.8545 1.17916 34.4842 1.69289 34.934 2.35103C35.3838 3.00917 35.6159 3.77148 35.6301 4.63796H32.6826Z" fill="white"/>
<path d="M39.3435 2.99023V0.454723H51.2895V2.99023H46.8364V15.0002H43.7966V2.99023H39.3435Z" fill="white"/>
<path d="M67.9593 7.72745C67.9593 9.31362 67.6586 10.6631 67.0573 11.7757C66.4607 12.8884 65.6463 13.7383 64.6141 14.3255C63.5866 14.9078 62.4313 15.199 61.1482 15.199C59.8556 15.199 58.6955 14.9055 57.6681 14.3184C56.6406 13.7312 55.8286 12.8813 55.232 11.7686C54.6354 10.656 54.3371 9.30889 54.3371 7.72745C54.3371 6.14128 54.6354 4.79184 55.232 3.67916C55.8286 2.56647 56.6406 1.71893 57.6681 1.13654C58.6955 0.54942 59.8556 0.255859 61.1482 0.255859C62.4313 0.255859 63.5866 0.54942 64.6141 1.13654C65.6463 1.71893 66.4607 2.56647 67.0573 3.67916C67.6586 4.79184 67.9593 6.14128 67.9593 7.72745ZM64.8414 7.72745C64.8414 6.69999 64.6875 5.83351 64.3797 5.12802C64.0767 4.42253 63.6482 3.88749 63.0942 3.52291C62.5402 3.15832 61.8915 2.97603 61.1482 2.97603C60.4048 2.97603 59.7561 3.15832 59.2021 3.52291C58.6482 3.88749 58.2173 4.42253 57.9095 5.12802C57.6065 5.83351 57.455 6.69999 57.455 7.72745C57.455 8.75491 57.6065 9.62139 57.9095 10.3269C58.2173 11.0324 58.6482 11.5674 59.2021 11.932C59.7561 12.2966 60.4048 12.4789 61.1482 12.4789C61.8915 12.4789 62.5402 12.2966 63.0942 11.932C63.6482 11.5674 64.0767 11.0324 64.3797 10.3269C64.6875 9.62139 64.8414 8.75491 64.8414 7.72745Z" fill="white"/>
<path d="M81.8822 5.15643C81.7828 4.81078 81.6431 4.50539 81.4632 4.24023C81.2832 3.97035 81.0631 3.74308 80.8026 3.55842C80.547 3.36902 80.2534 3.22461 79.922 3.12518C79.5953 3.02575 79.233 2.97603 78.8353 2.97603C78.0919 2.97603 77.4385 3.16069 76.8751 3.53001C76.3164 3.89933 75.8808 4.43673 75.5683 5.14222C75.2558 5.84298 75.0995 6.69999 75.0995 7.71325C75.0995 8.7265 75.2534 9.58825 75.5612 10.2985C75.8689 11.0087 76.3045 11.5508 76.868 11.9249C77.4314 12.2942 78.0967 12.4789 78.8637 12.4789C79.5597 12.4789 80.154 12.3558 80.6464 12.1096C81.1436 11.8586 81.5223 11.5059 81.7828 11.0513C82.0479 10.5968 82.1805 10.0594 82.1805 9.4391L82.8055 9.53143H79.0555V7.21609H85.1421V9.04847C85.1421 10.3269 84.8722 11.4254 84.3325 12.3439C83.7927 13.2578 83.0493 13.9632 82.1024 14.4604C81.1554 14.9528 80.0711 15.199 78.8495 15.199C77.4859 15.199 76.288 14.8984 75.2558 14.2971C74.2236 13.691 73.4186 12.8316 72.841 11.7189C72.2681 10.6015 71.9816 9.27575 71.9816 7.74165C71.9816 6.56268 72.1521 5.51154 72.493 4.58825C72.8386 3.66022 73.3216 2.87423 73.9418 2.23029C74.5621 1.58635 75.2842 1.09629 76.108 0.760121C76.9319 0.423946 77.8244 0.255859 78.7856 0.255859C79.6095 0.255859 80.3765 0.376598 81.0867 0.618076C81.797 0.854818 82.4267 1.19099 82.9759 1.6266C83.5299 2.0622 83.9821 2.58067 84.3325 3.182C84.6829 3.77859 84.9078 4.43673 85.0072 5.15643H81.8822Z" fill="white"/>
<path d="M89.4521 15.0002V0.454723H95.1908C96.2893 0.454723 97.2268 0.651219 98.0033 1.04421C98.7845 1.43247 99.3788 1.98408 99.786 2.69904C100.198 3.40927 100.404 4.24497 100.404 5.20614C100.404 6.17205 100.196 7.00302 99.7789 7.69904C99.3622 8.39033 98.7585 8.92063 97.9678 9.28995C97.1818 9.65927 96.2301 9.84393 95.1127 9.84393H91.2703V7.37234H94.6155C95.2026 7.37234 95.6903 7.29184 96.0786 7.13086C96.4668 6.96987 96.7557 6.7284 96.945 6.40643C97.1392 6.08446 97.2362 5.68436 97.2362 5.20614C97.2362 4.72319 97.1392 4.31599 96.945 3.98455C96.7557 3.65311 96.4645 3.40217 96.0715 3.23171C95.6832 3.05652 95.1932 2.96893 94.6013 2.96893H92.5274V15.0002H89.4521ZM97.3073 8.38086L100.922 15.0002H97.5274L93.9905 8.38086H97.3073Z" fill="white"/>
<path d="M107.084 15.0002H103.789L108.81 0.454723H112.773L117.787 15.0002H114.492L110.848 3.77859H110.735L107.084 15.0002Z" fill="white"/>
<path d="M121.538 0.454723H125.331L129.336 10.2275H129.507L133.513 0.454723H137.305V15.0002H134.322V5.53285H134.201L130.437 14.9292H128.406L124.642 5.49734H124.521V15.0002H121.538V0.454723Z" fill="white"/>
<rect y="21" width="4.61905" height="3" fill="white"/>
<rect x="6.61914" y="21" width="4.61905" height="3" fill="white"/>
<rect x="13.2383" y="21" width="4.61905" height="3" fill="white"/>
<rect x="19.8574" y="21" width="4.61905" height="3" fill="white"/>
<rect x="26.4766" y="21" width="4.61905" height="3" fill="white"/>
<rect x="33.0957" y="21" width="4.61905" height="3" fill="white"/>
<rect x="39.7139" y="21" width="4.61905" height="3" fill="white"/>
<rect x="46.333" y="21" width="4.61905" height="3" fill="white"/>
<rect x="52.9521" y="21" width="4.61905" height="3" fill="white"/>
<rect x="59.5713" y="21" width="4.61905" height="3" fill="white"/>
<rect x="66.1904" y="21" width="4.61905" height="3" fill="white"/>
<rect x="72.8096" y="21" width="4.61905" height="3" fill="white"/>
<rect x="79.4287" y="21" width="4.61905" height="3" fill="white"/>
<rect x="86.0479" y="21" width="4.61905" height="3" fill="white"/>
<rect x="92.667" y="21" width="4.61905" height="3" fill="white"/>
<rect x="99.2861" y="21" width="4.61905" height="3" fill="white"/>
<rect x="105.904" y="21" width="4.61905" height="3" fill="white"/>
<rect x="112.523" y="21" width="4.61905" height="3" fill="white"/>
<rect x="119.143" y="21" width="4.61905" height="3" fill="white"/>
<rect x="125.762" y="21" width="4.61905" height="3" fill="white"/>
<rect x="132.381" y="21" width="4.61905" height="3" fill="white"/>
</svg>
