<?xml version="1.0" encoding="UTF-8" standalone="no"?>
<!DOCTYPE svg PUBLIC "-//W3C//DTD SVG 1.1//EN" "http://www.w3.org/Graphics/SVG/1.1/DTD/svg11.dtd">
<svg width="100%" height="100%" viewBox="0 0 225 93" version="1.1" xmlns="http://www.w3.org/2000/svg" xmlns:xlink="http://www.w3.org/1999/xlink" xml:space="preserve" xmlns:serif="http://www.serif.com/" style="fill-rule:evenodd;clip-rule:evenodd;stroke-linejoin:round;stroke-miterlimit:2;">
    <g transform="matrix(1,0,0,1,-4,-3.32924)">
        <path d="M6.8,94.8C4.2,93.9 4,93.4 4,88.4L4,83L13,83L13,41L29,41L29,64C29,82.3 28.7,87.7 27.5,89.9C24.9,95 14.1,97.5 6.8,94.8Z" style="fill:white;fill-rule:nonzero;"/>
        <path d="M92,96L92,41L99.5,41C106.3,41 107,41.2 107,43C107,45.5 107.2,45.5 111.6,42.5C114.8,40.3 116.3,40 124.2,40C135.5,40 141,41.4 144.7,45.2C147.5,48.1 147.5,48.2 147.5,61C147.5,72.4 147.3,74 145.5,76C141.4,80.6 138.2,81.5 125.8,81.5C114.2,81.5 114.1,81.5 111.1,78.6L108,75.6L108,96L92,96ZM131.4,68.4C133.5,66.4 133.6,54.8 131.6,53.1C128.2,50.2 112.5,50.6 109.5,53.6C107.4,55.8 107.5,65.8 109.7,68.2C111.9,70.7 129,70.9 131.4,68.4Z" style="fill:white;fill-rule:nonzero;"/>
        <path d="M45.5,81.1C36,78.8 33.8,74.1 33.2,55.3L32.7,41L49,41L49,53.3C49,68.9 49.5,69.5 60.7,69.5C67.6,69.5 68.3,69.3 70.6,66.7C72.8,64.1 73,63.1 73,52.4L73,41L89,41L89,81L73,81L73,75.7L70.7,77.8C69.4,79.1 66.8,80.5 64.9,81C61.1,82.1 50,82.2 45.5,81.1Z" style="fill:white;fill-rule:nonzero;"/>
        <path d="M178.3,79.9C172.1,76.9 170.5,72.8 170.6,60.5C170.6,48.7 172.1,45 178,42C181.5,40.2 183.9,40 199.2,40C219.6,40 222.1,40.8 225.8,48C228.8,54 228.9,67.4 226,73.8C222.8,80.8 219,82 199,82C184.3,82 182,81.8 178.3,79.9ZM210.4,68.4C212.5,66.3 212.6,55.7 210.5,53.6C207,50.2 191.5,50.5 187.9,54.1C184.7,57.3 185.7,66.8 189.4,69.2C190,69.6 194.6,70 199.7,70C206.7,70 209.2,69.6 210.4,68.4Z" style="fill:white;fill-rule:nonzero;"/>
        <rect x="152" y="41" width="15" height="40" style="fill:white;fill-rule:nonzero;"/>
        <path d="M152.5,34.6C148.8,33 144.2,27.8 143.4,24.4C142.4,20.4 143.6,13 145.7,10.1C148.7,6.1 155.8,2.8 160.3,3.4C175.5,5.2 180.2,24.1 167.8,33.3C164.5,35.8 156.5,36.5 152.5,34.6ZM160.6,27.3C161.7,23.8 162.7,22.5 165.1,22C168.6,21.2 168.3,17.6 164.8,17.2C162.6,16.9 161.8,16.2 161.2,13.7C160,8.9 157.3,9.6 155.6,15.3C155.3,16.2 154.2,17 153.2,17C150.8,17 148.9,19.2 149.8,20.7C150.2,21.3 151.6,22 152.9,22.1C154.7,22.4 155.6,23.4 156.2,25.8C157.1,29.3 159.7,30.1 160.6,27.3Z" style="fill:white;fill-rule:nonzero;"/>
    </g>
</svg>
