<?xml version="1.0" encoding="UTF-8" standalone="no"?>
<!DOCTYPE svg PUBLIC "-//W3C//DTD SVG 1.1//EN" "http://www.w3.org/Graphics/SVG/1.1/DTD/svg11.dtd">
<svg width="100%" height="100%" viewBox="0 0 66 91" version="1.1" xmlns="http://www.w3.org/2000/svg" xmlns:xlink="http://www.w3.org/1999/xlink" xml:space="preserve" xmlns:serif="http://www.serif.com/" style="fill-rule:evenodd;clip-rule:evenodd;stroke-linejoin:round;stroke-miterlimit:2;">
    <g transform="matrix(1,0,0,1,-20.4,-15)">
        <path d="M78,106L85.8,106L80.7,46.9L80.7,46.7L55,46.7L55,46.9L49.9,106L57.7,106L62.2,54.5L73.6,54.5L78,106Z" style="fill:white;fill-rule:nonzero;"/>
    </g>
    <g transform="matrix(1,0,0,1,-20.4,-15)">
        <path d="M80.2,17.2C77.2,16.2 72.3,15 66.3,15C60.5,15 54.7,16.1 49.2,18.3C44.5,20.2 39.6,21.1 34.7,21.1C27.2,21.1 22.2,18.9 21.2,18.5L20.4,18.1L20.4,26.3L20.8,26.4C23.8,27.4 28.6,28.7 34.6,28.7C40.4,28.7 46.2,27.6 51.9,25.4C56.5,23.6 61.4,22.7 66.3,22.7C73.6,22.7 78.9,24.8 79.9,25.2L80.7,25.5L80.7,17.3L80.2,17.2Z" style="fill:white;fill-rule:nonzero;"/>
    </g>
    <g transform="matrix(1,0,0,1,-20.4,-15)">
        <path d="M66.3,29.7C60.5,29.7 54.7,30.8 49.2,33C44.5,34.9 39.6,35.8 34.7,35.8C27.2,35.8 22.2,33.6 21.2,33.2L20.4,32.8L20.4,41L20.8,41.1C23.8,42.1 28.6,43.4 34.6,43.4C40.4,43.4 46.2,42.3 51.9,40.1C56.5,38.3 61.4,37.4 66.3,37.4C73.6,37.4 78.9,39.5 79.9,39.9L80.7,40.2L80.7,32L80.3,31.9C77.2,30.9 72.4,29.7 66.3,29.7Z" style="fill:white;fill-rule:nonzero;"/>
    </g>
</svg>
