<?xml version="1.0" encoding="UTF-8" standalone="no"?>
<!DOCTYPE svg PUBLIC "-//W3C//DTD SVG 1.1//EN" "http://www.w3.org/Graphics/SVG/1.1/DTD/svg11.dtd">
<svg width="100%" height="100%" viewBox="0 0 284 54" version="1.1" xmlns="http://www.w3.org/2000/svg" xmlns:xlink="http://www.w3.org/1999/xlink" xml:space="preserve" xmlns:serif="http://www.serif.com/" style="fill-rule:evenodd;clip-rule:evenodd;stroke-linejoin:round;stroke-miterlimit:2;">
    <g transform="matrix(1,0,0,1,0.01,0)">
        <g>
            <path d="M20.36,0L23.3,0C26.373,0.42 29.277,1.387 32.01,2.9C32.29,3.06 32.403,3.297 32.35,3.61L30.94,12.65C30.909,12.849 30.736,12.997 30.535,12.997C30.438,12.997 30.344,12.963 30.27,12.9C27.583,10.653 24.54,9.533 21.14,9.54C14.34,9.55 16.44,15.52 19.11,18.92C25.58,27.16 32.67,34.42 26.69,45.14C23.81,50.3 18.96,53.28 13.18,54L10.51,54C6.41,53.5 2.907,52.043 0,49.63C-0.013,49.49 -0.013,49.347 0,49.2L1.69,39.17C1.72,38.987 1.88,38.852 2.065,38.852C2.169,38.852 2.268,38.895 2.34,38.97C5.01,41.8 9.33,44.89 13.24,43.77C23.46,40.85 10.01,27.66 8.1,24.92C0.43,13.92 7.87,1.62 20.36,0Z" style="fill:white;fill-rule:nonzero;"/>
            <path d="M146.76,0L149.83,0C164.15,2.01 166.32,16.35 164.08,28.07C161.72,40.42 155.38,52 141.69,54L138.14,54C129.727,52.467 125.013,47.213 124,38.24C122.19,22.14 128.93,3.19 146.76,0ZM138.19,42.56C141.503,44.627 144.597,44.003 147.47,40.69C152.06,35.38 153.16,24.02 152.83,17.51C152.35,8.01 142.19,8.71 139.13,15.67C136.85,20.86 132.31,38.9 138.19,42.56Z" style="fill:white;fill-rule:nonzero;"/>
            <path d="M270.3,0L274.26,0C277.387,0.333 280.25,1.237 282.85,2.71C283.127,2.868 283.278,3.179 283.23,3.49L281.83,12.25C281.757,12.697 281.523,12.807 281.13,12.58C270.19,6.26 262.99,12.75 260.1,23.05C256.54,35.75 259.93,51.09 277.15,40.31C277.221,40.267 277.302,40.244 277.385,40.244C277.632,40.244 277.835,40.447 277.835,40.694C277.835,40.716 277.833,40.738 277.83,40.76L276.46,49.7C276.413,49.987 276.27,50.213 276.03,50.38C273.117,52.36 269.82,53.567 266.14,54L262.14,54C240.36,50.49 245.74,21.62 254.57,9.31C258.317,4.083 263.56,0.98 270.3,0Z" style="fill:white;fill-rule:nonzero;"/>
            <path d="M54.58,22L70.65,22C70.651,22 70.653,22 70.654,22C70.829,22 70.974,22.144 70.974,22.32C70.974,22.337 70.973,22.353 70.97,22.37L69.58,31.06C69.555,31.216 69.418,31.332 69.26,31.33L53.09,31C52.932,30.998 52.795,31.114 52.77,31.27L50.82,43.88C50.817,43.897 50.816,43.913 50.816,43.93C50.816,44.103 50.957,44.247 51.13,44.25L69.17,44.25C69.343,44.253 69.484,44.397 69.484,44.57C69.484,44.587 69.483,44.603 69.48,44.62L68.15,52.97C68.126,53.123 67.994,53.237 67.84,53.24L38.19,53.27C38.017,53.267 37.876,53.123 37.876,52.95C37.876,52.933 37.877,52.917 37.88,52.9L45.86,1C45.884,0.847 46.016,0.733 46.17,0.73L75.21,0.76C75.383,0.763 75.524,0.907 75.524,1.08C75.524,1.097 75.523,1.113 75.52,1.13L74.18,9.48C74.156,9.633 74.024,9.747 73.87,9.75L56.34,9.75C56.182,9.748 56.045,9.864 56.02,10.02L54.27,21.63C54.267,21.647 54.266,21.663 54.266,21.68C54.266,21.853 54.407,21.997 54.58,22Z" style="fill:white;fill-rule:nonzero;"/>
            <path d="M89.56,53.26L78.56,53.25C78.392,53.247 78.256,53.108 78.256,52.94C78.256,52.923 78.257,52.907 78.26,52.89L86.27,1.01C86.295,0.859 86.427,0.748 86.58,0.75L97.52,0.75C97.688,0.753 97.824,0.892 97.824,1.06C97.824,1.077 97.823,1.093 97.82,1.11L94.12,25.05C94.118,25.065 94.116,25.081 94.116,25.097C94.116,25.267 94.256,25.407 94.426,25.407C94.534,25.407 94.634,25.351 94.69,25.26L110.58,0.89C110.637,0.802 110.735,0.75 110.84,0.75L121.7,0.75C121.7,0.75 121.701,0.75 121.701,0.75C121.871,0.75 122.011,0.89 122.011,1.06C122.011,1.12 121.993,1.179 121.96,1.23L105.88,25.6C105.822,25.686 105.811,25.794 105.85,25.89L117.24,52.82C117.256,52.858 117.264,52.899 117.264,52.94C117.264,53.11 117.124,53.25 116.954,53.25C116.953,53.25 116.951,53.25 116.95,53.25L104.68,53.25C104.554,53.252 104.439,53.176 104.39,53.06L94.16,28.7C94.115,28.578 93.999,28.496 93.869,28.496C93.709,28.496 93.574,28.62 93.56,28.78L89.87,53C89.845,53.151 89.713,53.262 89.56,53.26Z" style="fill:white;fill-rule:nonzero;"/>
            <path d="M182.19,53.22L171.88,53.32C171.712,53.317 171.576,53.178 171.576,53.01C171.576,52.993 171.577,52.977 171.58,52.96L179.59,1.01C179.615,0.859 179.747,0.748 179.9,0.75L190.17,0.75C190.307,0.749 190.43,0.839 190.47,0.97L199.27,29.53C199.312,29.656 199.431,29.741 199.564,29.741C199.716,29.741 199.846,29.63 199.87,29.48L204.21,1.01C204.235,0.859 204.367,0.748 204.52,0.75L214.8,0.75C214.801,0.75 214.803,0.75 214.804,0.75C214.974,0.75 215.114,0.89 215.114,1.06C215.114,1.077 215.113,1.093 215.11,1.11L207.12,52.98C207.096,53.127 206.969,53.237 206.82,53.24L197.23,53.28C197.093,53.281 196.97,53.191 196.93,53.06L187.64,23.16C187.598,23.034 187.479,22.949 187.346,22.949C187.194,22.949 187.064,23.06 187.04,23.21L182.49,52.96C182.466,53.107 182.339,53.217 182.19,53.22Z" style="fill:white;fill-rule:nonzero;"/>
            <path d="M231.22,53.25L221.09,53.25C220.77,53.25 220.637,53.093 220.69,52.78L228.58,1.41C228.647,0.97 228.903,0.75 229.35,0.75L239.75,0.75C240.083,0.75 240.223,0.913 240.17,1.24L232.2,53.21C232.167,53.443 232.037,53.547 231.81,53.52C231.69,53.5 231.58,53.443 231.48,53.35C231.41,53.286 231.317,53.25 231.22,53.25Z" style="fill:white;fill-rule:nonzero;"/>
        </g>
    </g>
</svg>
