<svg width="1058" height="226" viewBox="0 0 1058 226" fill="none" xmlns="http://www.w3.org/2000/svg">
<g clip-path="url(#clip0_37_48)">
<path d="M285.651 12.2998H241V214.122H285.651V12.2998Z" fill="white"/>
<path fill-rule="evenodd" clip-rule="evenodd" d="M731 12.2998L700 124.3H699L667 12.2998H609L577 214.3H621L641 69.2998H642L681 214.3H718L757 69.2998L778 214.3H823L790 12.2998H731Z" fill="white"/>
<path fill-rule="evenodd" clip-rule="evenodd" d="M1005 214.3H1052L972 12.2998H910L830 214.3H874L890 173.3H989L1005 214.3ZM940 48.2998L974 135.3H905L940 48.2998Z" fill="white"/>
<path fill-rule="evenodd" clip-rule="evenodd" d="M433 94.2998V135.3H504V138.3C504 165.3 480 184.3 442 184.3C404 184.3 374 163.3 374 114.3C374 63.2998 406 44.2998 443 44.2998C472 44.2998 493 49.2998 517 61.2998L538 27.2998C513 12.2998 476 3.2998 442 3.2998C381 3.2998 326 36.2998 326 115.3C326 184.3 374 223.3 440 223.3C514 223.3 549 188.3 550 125.3C550 116.3 550 107.3 549 94.2998H433Z" fill="white"/>
<path fill-rule="evenodd" clip-rule="evenodd" d="M151 96.2998C123 90.2998 104 93.2998 76 87.2998C58 84.2998 53 77.2998 53 69.2998C53 52.2998 75 43.2998 104 43.2998C127 43.2998 150 49.2998 172 59.2998L194 22.2998C170 10.2998 137 2.2998 99 2.2998C63 2.2998 7 19.2998 7 72.2998C7 102.3 27 121.3 54 127.3C79 133.3 95 132.3 125 136.3C145 139.3 153 146.3 153 157.3C153 173.3 132 183.3 102 183.3C76 183.3 50 178.3 24 167.3L6 205.3C38 219.3 71 225.3 99 225.3C160 225.3 201 198.3 201 154.3C201 124.3 183 103.3 151 96.2998Z" fill="white"/>
</g>
<defs>
<clipPath id="clip0_37_48">
<rect width="1058" height="225" fill="white" transform="translate(0 0.299805)"/>
</clipPath>
</defs>
</svg>
